<svg width="32" height="32" viewBox="0 0 32 32" fill="none" xmlns="http://www.w3.org/2000/svg">
<rect width="32" height="32" rx="16" fill="#E1E1E1"/>
<g filter="url(#filter0_f_815_1496)">
<path fill-rule="evenodd" clip-rule="evenodd" d="M9.35486 26.6626C10.1816 27.0891 11.1107 27.3048 12.1423 27.3095C12.9202 27.3131 13.7325 27.1899 14.5792 26.9401C15.4259 26.7072 16.2731 26.3475 17.1209 25.861C18.2909 25.1898 19.36 24.383 20.3282 23.4404C20.6351 23.1415 20.9215 22.8418 21.1874 22.5411V22.006V21.9115C21.1245 21.982 21.06 22.053 20.9938 22.1243C20.433 22.7306 19.796 23.328 19.0831 23.9167C18.3871 24.4885 17.6406 25.0009 16.8437 25.4538C16.0129 25.9235 15.2165 26.275 14.4544 26.5083C13.6922 26.7585 12.9983 26.8822 12.3726 26.8793C11.1888 26.8739 10.2605 26.4807 9.58757 25.6997C8.9146 24.9356 8.58982 23.8433 8.61323 22.4228C9.30489 22.7981 10.0224 23.0719 10.7657 23.2444C11.5259 23.417 12.2781 23.505 13.0222 23.5084C14.0199 23.513 14.9845 23.3737 15.9159 23.0904C16.8644 22.7903 17.7034 22.3714 18.433 21.8336C19.1796 21.2958 19.7661 20.6389 20.1924 19.863C20.6356 19.0871 20.8595 18.2171 20.8639 17.2532C20.8645 17.1179 20.8567 16.9826 20.8404 16.8472C20.841 16.7119 20.8331 16.5851 20.8167 16.4666C20.8006 16.2974 20.776 16.1366 20.7428 15.9843C20.7098 15.815 20.6767 15.6542 20.6436 15.5019C21.2196 15.2846 21.7873 15.0336 22.3466 14.7486C23.4655 14.1618 24.407 13.5151 25.1713 12.8083C25.9356 12.0846 26.5054 11.3684 26.8807 10.6599C27.273 9.93447 27.4705 9.26737 27.4733 8.65857C27.4765 7.96521 27.2169 7.39749 26.6947 6.9554C26.1895 6.49648 25.4126 6.26462 24.3641 6.25983C23.806 6.25728 23.1631 6.33044 22.4352 6.47932C21.7243 6.61136 20.9284 6.84448 20.0475 7.17868C19.4207 7.39566 18.7938 7.66338 18.1666 7.98183C17.5395 8.28337 16.9123 8.61873 16.2848 8.98792C16.0995 8.83487 15.9057 8.69023 15.7034 8.55401C15.518 8.41787 15.3325 8.29019 15.147 8.17096C14.1691 7.52385 13.2242 7.06292 12.3122 6.78817C11.4003 6.51341 10.5638 6.3743 9.80279 6.37082C8.94032 6.36687 8.17863 6.51559 7.5177 6.81698C6.87368 7.11844 6.36446 7.53044 5.99001 8.05299C5.63256 8.5587 5.4524 9.12441 5.44954 9.75012C5.44668 10.3758 5.62984 11.0024 5.99902 11.6298L6.22558 12.0114L6.19999 12.062C5.74076 12.6349 5.36566 13.3012 5.07469 14.0608C4.80071 14.8037 4.6619 15.5725 4.65826 16.3674C4.65455 17.1791 4.81991 18.0001 5.15435 18.8302C5.48886 19.6435 6.02657 20.3985 6.76749 21.0953C6.74996 21.2305 6.73239 21.3742 6.71479 21.5263L6.71293 21.9322C6.70775 23.0652 6.9401 24.0302 7.40998 24.8272C7.89677 25.6243 8.54506 26.2361 9.35486 26.6626ZM21.3572 14.7695C21.103 14.8867 20.8319 15.0038 20.5439 15.1209C20.2443 14.071 19.7753 13.0711 19.137 12.1211C18.4988 11.1543 17.7755 10.3054 16.9671 9.57448C18.019 8.83519 19.0956 8.23975 20.1969 7.78818C21.0949 7.40332 21.891 7.12792 22.5852 6.96198C23.2963 6.7792 23.914 6.68902 24.4382 6.69141C25.2838 6.69528 25.9002 6.88412 26.2874 7.25795C26.6917 7.61494 26.8925 8.08938 26.8897 8.68127C26.886 9.50991 26.4758 10.4551 25.6592 11.5168C24.8425 12.5785 23.6544 13.537 22.0946 14.3923C21.8572 14.5265 21.6114 14.6523 21.3572 14.7695ZM12.4417 11.7607C11.406 12.6523 10.4885 13.5867 9.68923 14.5639C8.57603 13.9162 7.65831 13.0495 6.93608 11.9639L6.8857 11.8875C7.76949 10.9276 8.76945 10.4502 9.88558 10.4553C10.2745 10.4571 10.6209 10.5179 10.9248 10.6376C11.0092 10.6719 11.0768 10.6806 11.1276 10.6639C11.1785 10.6303 11.2041 10.5882 11.2043 10.5375C11.2046 10.4698 11.171 10.4274 11.1034 10.4102C10.884 10.3077 10.6645 10.239 10.4448 10.2042C10.2252 10.1525 9.99701 10.1261 9.76026 10.125C8.64412 10.1199 7.61887 10.5802 6.68451 11.5061C6.38281 10.9128 6.23309 10.371 6.23533 9.88055C6.23919 9.03499 6.59742 8.36017 7.31001 7.85609C8.03951 7.35208 8.95387 7.10259 10.0531 7.10761C10.7803 7.11094 11.5576 7.24133 12.3851 7.49878C13.2295 7.75632 14.0816 8.183 14.9413 8.77883L15.7253 9.31513C14.5889 10.0371 13.4944 10.8523 12.4417 11.7607ZM20.1881 15.2461C18.6637 15.7634 17.0814 16.0183 15.441 16.0108C14.6969 16.0074 13.9615 15.9448 13.2349 15.8231C12.5082 15.7014 11.8073 15.5122 11.132 15.2554C11.8301 14.227 12.6378 13.2583 13.5552 12.3493C14.4895 11.4403 15.4656 10.6246 16.4836 9.90205C17.326 10.5993 18.0749 11.406 18.7302 12.3222C19.4026 13.2216 19.8885 14.1962 20.1881 15.2461ZM7.15693 19.1438C7.0709 19.4647 6.99337 19.7772 6.92433 20.0813C6.33538 19.436 5.90728 18.7491 5.64003 18.0207C5.37277 17.2923 5.24077 16.573 5.24402 15.8627C5.2499 14.5774 5.62701 13.4715 6.37535 12.5448L6.4774 12.4184C6.86388 12.9613 7.29291 13.4453 7.76449 13.8702C8.25298 14.2952 8.78398 14.6697 9.35749 14.9936C8.54096 16.0384 7.91887 17.0925 7.49122 18.156C7.37129 18.4937 7.25986 18.823 7.15693 19.1438ZM16.9852 22.2582C15.9346 22.71 14.8005 22.9331 13.5829 22.9275C12.8388 22.9241 12.0867 22.8277 11.3265 22.6382C10.5664 22.4487 9.82362 22.1578 9.09821 21.7655L8.89575 21.6631L8.69351 21.51C8.72911 21.1212 8.79861 20.7156 8.90201 20.2933C9.00541 19.871 9.12584 19.4234 9.26329 18.9505C9.65751 17.8023 10.1867 16.714 10.851 15.6854C11.5433 15.9253 12.2612 16.1062 13.0047 16.228C13.7483 16.3497 14.5005 16.4124 15.2616 16.4158C17.0203 16.4239 18.6958 16.161 20.2879 15.6271L20.3869 16.1602C20.4198 16.3633 20.4443 16.5579 20.4603 16.744C20.4764 16.9301 20.484 17.1162 20.4832 17.3022C20.4778 18.4691 20.1519 19.4738 19.5054 20.3164C18.8758 21.1591 18.0358 21.8064 16.9852 22.2582Z" fill="#121212"/>
<path d="M12.1423 27.3095L12.1446 26.7979L12.1446 26.7979L12.1423 27.3095ZM9.35486 26.6626L9.11646 27.1152L9.12027 27.1172L9.35486 26.6626ZM14.5792 26.9401L14.4435 26.4468L14.4345 26.4494L14.5792 26.9401ZM17.1209 25.861L16.8663 25.4172L16.8663 25.4172L17.1209 25.861ZM20.3282 23.4404L20.6851 23.8069L20.6852 23.8069L20.3282 23.4404ZM21.1874 22.5411L21.5706 22.88L21.699 22.7349V22.5411H21.1874ZM21.1874 21.9115H21.699V20.569L20.8055 21.5711L21.1874 21.9115ZM20.9938 22.1243L20.6187 21.7764L20.6183 21.7769L20.9938 22.1243ZM19.0831 23.9167L19.4078 24.312L19.4088 24.3112L19.0831 23.9167ZM16.8437 25.4538L17.0955 25.8992L17.0965 25.8986L16.8437 25.4538ZM14.4544 26.5083L14.3046 26.019L14.2948 26.0222L14.4544 26.5083ZM12.3726 26.8793L12.3702 27.3909L12.3702 27.3909L12.3726 26.8793ZM9.58757 25.6997L9.97518 25.3657L9.9715 25.3615L9.58757 25.6997ZM8.61323 22.4228L8.85718 21.9732L8.1156 21.5709L8.1017 22.4144L8.61323 22.4228ZM10.7657 23.2444L10.65 23.7428L10.6524 23.7433L10.7657 23.2444ZM13.0222 23.5084L13.0198 24.02L13.0198 24.02L13.0222 23.5084ZM15.9159 23.0904L16.0648 23.5799L16.0703 23.5782L15.9159 23.0904ZM18.433 21.8336L18.134 21.4184L18.1295 21.4218L18.433 21.8336ZM20.1924 19.863L19.7481 19.6092L19.744 19.6166L20.1924 19.863ZM20.8639 17.2532L20.3523 17.2509L20.3523 17.2509L20.8639 17.2532ZM20.8404 16.8472L20.3288 16.8449L20.3286 16.8767L20.3324 16.9084L20.8404 16.8472ZM20.8167 16.4666L20.3075 16.5152L20.3085 16.5259L20.31 16.5366L20.8167 16.4666ZM20.7428 15.9843L20.2406 16.0824L20.2429 16.093L20.7428 15.9843ZM20.6436 15.5019L20.4631 15.0232L20.0498 15.179L20.1437 15.6106L20.6436 15.5019ZM22.3466 14.7486L22.5789 15.2045L22.5843 15.2017L22.3466 14.7486ZM25.1713 12.8083L25.5187 13.1839L25.523 13.1798L25.1713 12.8083ZM26.8807 10.6599L26.4307 10.4165L26.4286 10.4204L26.8807 10.6599ZM27.4733 8.65857L27.9849 8.66091L27.9849 8.66091L27.4733 8.65857ZM26.6947 6.9554L26.3507 7.3341L26.3573 7.34011L26.3642 7.34588L26.6947 6.9554ZM24.3641 6.25983L24.3618 6.77142L24.3641 6.25983ZM22.4352 6.47932L22.5286 6.98239L22.5377 6.98054L22.4352 6.47932ZM20.0475 7.17868L20.2148 7.66212L20.2219 7.65967L20.2289 7.65701L20.0475 7.17868ZM18.1666 7.98183L18.3884 8.44301L18.3982 8.438L18.1666 7.98183ZM16.2848 8.98792L15.9591 9.38239L16.2354 9.6106L16.5443 9.42885L16.2848 8.98792ZM15.7034 8.55401L15.4006 8.96638L15.409 8.97256L15.4176 8.97839L15.7034 8.55401ZM15.147 8.17096L14.8647 8.59765L14.8704 8.60132L15.147 8.17096ZM12.3122 6.78817L12.4598 6.29832L12.4598 6.29832L12.3122 6.78817ZM9.80279 6.37082L9.80045 6.88241L9.80279 6.37082ZM7.5177 6.81698L7.30542 6.35147L7.30081 6.35363L7.5177 6.81698ZM5.99001 8.05299L5.57415 7.75499L5.57224 7.75769L5.99001 8.05299ZM5.44954 9.75012L4.93795 9.74778L5.44954 9.75012ZM5.99902 11.6298L5.55809 11.8893L5.55913 11.891L5.99902 11.6298ZM6.22558 12.0114L6.68212 12.2422L6.80887 11.9916L6.66548 11.7501L6.22558 12.0114ZM6.19999 12.062L6.59917 12.382L6.63248 12.3404L6.65653 12.2929L6.19999 12.062ZM5.07469 14.0608L4.59689 13.8778L4.59469 13.8838L5.07469 14.0608ZM4.65826 16.3674L4.14667 16.365L4.65826 16.3674ZM5.15435 18.8302L4.67979 19.0214L4.68121 19.0249L5.15435 18.8302ZM6.76749 21.0953L7.27485 21.1611L7.30847 20.9018L7.11797 20.7226L6.76749 21.0953ZM6.71479 21.5263L6.20658 21.4675L6.20332 21.4956L6.20319 21.524L6.71479 21.5263ZM6.71293 21.9322L7.22453 21.9345L7.22453 21.9345L6.71293 21.9322ZM7.40998 24.8272L6.96921 25.0871L6.97336 25.0939L7.40998 24.8272ZM20.5439 15.1209L20.0519 15.2613L20.2083 15.8095L20.7365 15.5948L20.5439 15.1209ZM21.3572 14.7695L21.143 14.3049L21.143 14.3049L21.3572 14.7695ZM19.137 12.1211L18.71 12.403L18.7124 12.4065L19.137 12.1211ZM16.9671 9.57448L16.6729 9.15592L16.1487 9.52431L16.624 9.95398L16.9671 9.57448ZM20.1969 7.78818L20.391 8.26159L20.3984 8.25842L20.1969 7.78818ZM22.5852 6.96198L22.7041 7.45963L22.7125 7.45747L22.5852 6.96198ZM24.4382 6.69141L24.4406 6.17982L24.4406 6.17982L24.4382 6.69141ZM26.2874 7.25795L25.9321 7.62603L25.9403 7.63391L25.9488 7.64142L26.2874 7.25795ZM26.8897 8.68127L27.4013 8.68361L27.4013 8.68361L26.8897 8.68127ZM25.6592 11.5168L26.0647 11.8287L26.0647 11.8287L25.6592 11.5168ZM22.0946 14.3923L21.8486 13.9437L21.8428 13.947L22.0946 14.3923ZM9.68923 14.5639L9.43193 15.0061L9.80901 15.2255L10.0852 14.8878L9.68923 14.5639ZM12.4417 11.7607L12.7755 12.1485L12.7759 12.1481L12.4417 11.7607ZM6.93608 11.9639L6.50911 12.2457L6.51013 12.2472L6.93608 11.9639ZM6.8857 11.8875L6.50933 11.541L6.23828 11.8354L6.45873 12.1694L6.8857 11.8875ZM9.88558 10.4553L9.88792 9.94373L9.88792 9.94373L9.88558 10.4553ZM10.9248 10.6376L11.117 10.1635L11.1124 10.1617L10.9248 10.6376ZM11.1276 10.6639L11.2872 11.15L11.3523 11.1287L11.4095 11.0909L11.1276 10.6639ZM11.2043 10.5375L10.6927 10.5351L10.6927 10.5351L11.2043 10.5375ZM11.1034 10.4102L10.8869 10.8737L10.9305 10.894L10.9771 10.9059L11.1034 10.4102ZM10.4448 10.2042L10.3275 10.7022L10.346 10.7065L10.3647 10.7095L10.4448 10.2042ZM9.76026 10.125L9.7626 9.61338L9.7626 9.61338L9.76026 10.125ZM6.68451 11.5061L6.22848 11.738L6.5464 12.3632L7.0446 11.8695L6.68451 11.5061ZM6.23533 9.88055L6.74692 9.88289L6.74692 9.88289L6.23533 9.88055ZM7.31001 7.85609L7.01919 7.43515L7.01456 7.43842L7.31001 7.85609ZM10.0531 7.10761L10.0554 6.59602L10.0531 7.10761ZM12.3851 7.49878L12.2331 7.98729L12.2358 7.98813L12.3851 7.49878ZM14.9413 8.77883L14.6499 9.19934L14.6525 9.20108L14.9413 8.77883ZM15.7253 9.31513L15.9996 9.74695L16.6544 9.33092L16.0141 8.89289L15.7253 9.31513ZM15.441 16.0108L15.4386 16.5224L15.4386 16.5224L15.441 16.0108ZM20.1881 15.2461L20.3525 15.7306L20.8138 15.5741L20.6801 15.1057L20.1881 15.2461ZM13.2349 15.8231L13.3194 15.3186L13.3194 15.3186L13.2349 15.8231ZM11.132 15.2554L10.7087 14.9681L10.3452 15.5036L10.9502 15.7336L11.132 15.2554ZM13.5552 12.3493L13.1984 11.9826L13.1951 11.9859L13.5552 12.3493ZM16.4836 9.90205L16.8098 9.50793L16.5075 9.25772L16.1875 9.48485L16.4836 9.90205ZM18.7302 12.3222L18.314 12.6199L18.3205 12.6285L18.7302 12.3222ZM6.92433 20.0813L6.54645 20.4262L7.20647 21.1494L7.42324 20.1946L6.92433 20.0813ZM7.15693 19.1438L6.66978 18.9875L6.66599 18.9994L6.66277 19.0114L7.15693 19.1438ZM5.64003 18.0207L5.15973 18.1969L5.15973 18.1969L5.64003 18.0207ZM5.24402 15.8627L4.73242 15.8603L4.73242 15.8603L5.24402 15.8627ZM6.37535 12.5448L5.97732 12.2233L5.97732 12.2233L6.37535 12.5448ZM6.4774 12.4184L6.89418 12.1217L6.50308 11.5723L6.07937 12.097L6.4774 12.4184ZM7.76449 13.8702L7.42196 14.2503L7.42867 14.2562L7.76449 13.8702ZM9.35749 14.9936L9.76058 15.3087L10.1265 14.8405L9.60909 14.5482L9.35749 14.9936ZM7.49122 18.156L7.01656 17.9651L7.01263 17.9749L7.00912 17.9848L7.49122 18.156ZM13.5829 22.9275L13.5852 22.416L13.5852 22.416L13.5829 22.9275ZM11.3265 22.6382L11.4503 22.1418L11.4503 22.1418L11.3265 22.6382ZM9.09821 21.7655L9.34166 21.3153L9.3291 21.309L9.09821 21.7655ZM8.89575 21.6631L8.58692 22.071L8.62369 22.0988L8.66486 22.1197L8.89575 21.6631ZM8.69351 21.51L8.18404 21.4633L8.15813 21.7463L8.38468 21.9179L8.69351 21.51ZM9.26329 18.9505L8.77942 18.7844L8.77544 18.796L8.77202 18.8077L9.26329 18.9505ZM10.851 15.6854L11.0185 15.202L10.6391 15.0705L10.4212 15.4078L10.851 15.6854ZM13.0047 16.228L13.0874 15.7231L13.0874 15.7231L13.0047 16.228ZM15.2616 16.4158L15.2592 16.9274L15.2592 16.9274L15.2616 16.4158ZM20.2879 15.6271L20.7909 15.5336L20.6834 14.9549L20.1252 15.142L20.2879 15.6271ZM20.3869 16.1602L20.8921 16.0784L20.8899 16.0668L20.3869 16.1602ZM20.4603 16.744L19.9506 16.788L19.9506 16.788L20.4603 16.744ZM20.4832 17.3022L19.9716 17.2999L19.9716 17.2999L20.4832 17.3022ZM19.5054 20.3164L19.0995 20.005L19.0956 20.0102L19.5054 20.3164ZM12.1446 26.7979C11.185 26.7935 10.3368 26.5935 9.58945 26.2079L9.12027 27.1172C10.0264 27.5847 11.0365 27.816 12.14 27.8211L12.1446 26.7979ZM14.4345 26.4494C13.6292 26.687 12.8666 26.8012 12.1446 26.7979L12.14 27.8211C12.9739 27.8249 13.8359 27.6928 14.724 27.4308L14.4345 26.4494ZM16.8663 25.4172C16.0517 25.8847 15.2442 26.2266 14.4436 26.4469L14.7149 27.4334C15.6075 27.1879 16.4945 26.8103 17.3756 26.3047L16.8663 25.4172ZM19.9714 23.0738C19.0338 23.9865 17.999 24.7675 16.8663 25.4172L17.3755 26.3047C18.5827 25.6122 19.6862 24.7794 20.6851 23.8069L19.9714 23.0738ZM20.8041 22.2022C20.5472 22.4927 20.2697 22.7833 19.9713 23.0738L20.6852 23.8069C21.0006 23.4998 21.2958 23.1908 21.5706 22.88L20.8041 22.2022ZM21.699 22.5411V22.006H20.6758V22.5411H21.699ZM21.699 22.006V21.9115H20.6758V22.006H21.699ZM21.3689 22.4722C21.4373 22.3985 21.5041 22.3251 21.5692 22.252L20.8055 21.5711C20.7449 21.639 20.6827 21.7074 20.6187 21.7764L21.3689 22.4722ZM19.4088 24.3112C20.1374 23.7097 20.7913 23.0966 21.3694 22.4717L20.6183 21.7769C20.0747 22.3645 19.4547 22.9464 18.7574 23.5221L19.4088 24.3112ZM17.0965 25.8986C17.9184 25.4315 18.6889 24.9026 19.4078 24.312L18.7583 23.5214C18.0852 24.0743 17.3629 24.5702 16.5909 25.009L17.0965 25.8986ZM14.6041 26.9975C15.4079 26.7515 16.2385 26.3837 17.0955 25.8992L16.5919 25.0085C15.7873 25.4634 15.0251 25.7986 14.3046 26.0191L14.6041 26.9975ZM12.3702 27.3909C13.0639 27.3941 13.8135 27.2571 14.6139 26.9944L14.2948 26.0222C13.5709 26.2599 12.9326 26.3703 12.3749 26.3677L12.3702 27.3909ZM9.19998 26.0336C9.98438 26.944 11.0628 27.3849 12.3702 27.3909L12.3749 26.3677C11.3148 26.3629 10.5365 26.0173 9.97516 25.3657L9.19998 26.0336ZM8.1017 22.4144C8.07703 23.9118 8.4182 25.146 9.20364 26.0378L9.9715 25.3615C9.411 24.7252 9.10262 23.7748 9.12476 22.4313L8.1017 22.4144ZM10.8814 22.7461C10.1842 22.5843 9.50972 22.3271 8.85718 21.9732L8.36928 22.8725C9.10005 23.269 9.86058 23.5596 10.65 23.7428L10.8814 22.7461ZM13.0245 22.9968C12.3195 22.9936 11.6045 22.9103 10.879 22.7455L10.6524 23.7433C11.4473 23.9238 12.2367 24.0164 13.0198 24.02L13.0245 22.9968ZM15.7671 22.6009C14.8859 22.8689 13.9723 23.0012 13.0245 22.9968L13.0198 24.02C14.0675 24.0248 15.0831 23.8784 16.0648 23.5799L15.7671 22.6009ZM18.1295 21.4218C17.4493 21.9232 16.6617 22.3179 15.7616 22.6027L16.0703 23.5782C17.0671 23.2628 17.9575 22.8196 18.7366 22.2454L18.1295 21.4218ZM19.744 19.6166C19.3558 20.3233 18.8214 20.9234 18.134 21.4184L18.7321 22.2487C19.5379 21.6683 20.1764 20.9546 20.6408 20.1093L19.744 19.6166ZM20.3523 17.2509C20.3482 18.1338 20.1442 18.9159 19.7482 19.6092L20.6366 20.1167C21.1271 19.2582 21.3707 18.3005 21.3755 17.2556L20.3523 17.2509ZM20.3324 16.9084C20.3462 17.0228 20.3528 17.137 20.3523 17.2509L21.3755 17.2556C21.3762 17.0989 21.3671 16.9424 21.3483 16.7861L20.3324 16.9084ZM20.31 16.5366C20.3226 16.6282 20.3293 16.7307 20.3288 16.8449L21.352 16.8496C21.3527 16.6932 21.3436 16.5419 21.3235 16.3966L20.31 16.5366ZM20.2429 16.093C20.2714 16.2238 20.2931 16.3644 20.3075 16.5152L21.326 16.418C21.3081 16.2304 21.2806 16.0495 21.2428 15.8756L20.2429 16.093ZM20.1437 15.6106C20.1759 15.759 20.2083 15.9163 20.2407 16.0823L21.245 15.8863C21.2113 15.7138 21.1775 15.5494 21.1435 15.3932L20.1437 15.6106ZM22.1144 14.2928C21.5715 14.5693 21.0211 14.8127 20.4631 15.0232L20.8241 15.9806C21.4181 15.7566 22.003 15.4978 22.5788 15.2045L22.1144 14.2928ZM24.8239 12.4327C24.0988 13.1032 23.1962 13.7254 22.109 14.2956L22.5843 15.2017C23.7348 14.5983 24.7152 13.9269 25.5186 13.1839L24.8239 12.4327ZM26.4286 10.4204C26.0861 11.0672 25.5553 11.7401 24.8195 12.4368L25.523 13.1798C26.3159 12.4291 26.9248 11.6697 27.3328 10.8993L26.4286 10.4204ZM26.9617 8.65623C26.9594 9.15632 26.7965 9.74008 26.4307 10.4165L27.3307 10.9032C27.7495 10.1289 27.9816 9.37842 27.9849 8.66091L26.9617 8.65623ZM26.3642 7.34588C26.7692 7.68873 26.9642 8.1118 26.9617 8.65623L27.9849 8.66091C27.9887 7.81862 27.6647 7.10625 27.0253 6.56493L26.3642 7.34588ZM24.3618 6.77142C25.3492 6.77594 25.9782 6.99569 26.3507 7.3341L27.0387 6.5767C26.4008 5.99728 25.476 5.75331 24.3664 5.74824L24.3618 6.77142ZM22.5377 6.98054C23.2417 6.83656 23.8483 6.76908 24.3618 6.77142L24.3664 5.74824C23.7638 5.74548 23.0845 5.82432 22.3327 5.97809L22.5377 6.98054ZM20.2289 7.65701C21.0894 7.33059 21.8552 7.1074 22.5286 6.98231L22.3418 5.97632C21.5934 6.11532 20.7674 6.35837 19.866 6.70035L20.2289 7.65701ZM18.3982 8.438C19.0059 8.12946 19.6114 7.87105 20.2148 7.66212L19.8801 6.69523C19.2301 6.92028 18.5817 7.1973 17.935 7.52566L18.3982 8.438ZM16.5443 9.42885C17.16 9.06657 17.7746 8.73798 18.3883 8.4429L17.9449 7.52076C17.3044 7.82876 16.6645 8.1709 16.0254 8.54699L16.5443 9.42885ZM15.4176 8.97839C15.6063 9.10543 15.7868 9.24011 15.9591 9.38239L16.6106 8.59345C16.4122 8.42963 16.205 8.27503 15.9891 8.12964L15.4176 8.97839ZM14.8704 8.60132C15.0466 8.71458 15.2233 8.83624 15.4006 8.96638L16.0062 8.14165C15.8126 7.99951 15.6184 7.8658 15.4237 7.7406L14.8704 8.60132ZM12.1647 7.27802C13.0193 7.53551 13.9192 7.97193 14.8647 8.59761L15.4294 7.74431C14.4191 7.07578 13.4291 6.59033 12.4598 6.29832L12.1647 7.27802ZM9.80045 6.88241C10.5017 6.88562 11.2885 7.01406 12.1647 7.27802L12.4598 6.29832C11.512 6.01277 10.6259 5.86298 9.80513 5.85922L9.80045 6.88241ZM7.72996 7.28247C8.31209 7.01701 8.99831 6.87874 9.80045 6.88241L9.80513 5.85922C8.88233 5.855 8.04516 6.01418 7.30544 6.35149L7.72996 7.28247ZM6.40587 8.35098C6.72398 7.90705 7.16135 7.54866 7.73459 7.28033L7.30081 6.35363C6.58602 6.68822 6.00493 7.15384 5.57416 7.755L6.40587 8.35098ZM5.96113 9.75246C5.96352 9.23055 6.11159 8.76733 6.40779 8.34828L5.57224 7.75769C5.15353 8.35007 4.94128 9.01827 4.93795 9.74778L5.96113 9.75246ZM6.43995 11.3704C6.10972 10.8091 5.95876 10.272 5.96113 9.75246L4.93795 9.74778C4.9346 10.4797 5.14997 11.1957 5.55809 11.8893L6.43995 11.3704ZM6.66548 11.7501L6.43892 11.3686L5.55913 11.891L5.78569 12.2726L6.66548 11.7501ZM6.65653 12.2929L6.68212 12.2422L5.76905 11.7805L5.74345 11.8311L6.65653 12.2929ZM5.55244 14.2438C5.8265 13.5283 6.17643 12.9093 6.59917 12.382L5.80081 11.742C5.30508 12.3604 4.90482 13.074 4.59693 13.8779L5.55244 14.2438ZM5.16986 16.3697C5.17322 15.6343 5.30142 14.9246 5.55468 14.2379L4.59469 13.8838C4.3 14.6828 4.15058 15.5108 4.14667 16.365L5.16986 16.3697ZM5.62889 18.6391C5.31668 17.8641 5.16648 17.1086 5.16986 16.3697L4.14667 16.365C4.14262 17.2495 4.32315 18.1361 4.6798 19.0214L5.62889 18.6391ZM7.11797 20.7226C6.42189 20.068 5.93025 19.3717 5.62749 18.6356L4.68121 19.0249C5.04746 19.9153 5.63126 20.7291 6.41701 21.468L7.11797 20.7226ZM7.223 21.5851C7.24037 21.4351 7.25765 21.2937 7.27485 21.1611L6.26014 21.0295C6.24228 21.1673 6.22442 21.3133 6.20658 21.4675L7.223 21.5851ZM7.22453 21.9345L7.22638 21.5286L6.20319 21.524L6.20134 21.9298L7.22453 21.9345ZM7.85069 24.5674C7.43711 23.8659 7.21967 22.996 7.22453 21.9345L6.20134 21.9298C6.19583 23.1344 6.44309 24.1946 6.96927 25.0871L7.85069 24.5674ZM9.59326 26.2099C8.86683 25.8273 8.28632 25.2806 7.84659 24.5606L6.97336 25.0939C7.50721 25.968 8.22329 26.6448 9.11646 27.1152L9.59326 26.2099ZM20.7365 15.5948C21.031 15.4751 21.3094 15.3549 21.5714 15.2341L21.143 14.3049C20.8966 14.4185 20.6328 14.5325 20.3512 14.6469L20.7365 15.5948ZM18.7124 12.4065C19.3222 13.3141 19.7677 14.2654 20.0519 15.2613L21.0358 14.9805C20.7208 13.8766 20.2284 12.8281 19.5617 11.8358L18.7124 12.4065ZM16.624 9.95398C17.3985 10.6542 18.0941 11.4698 18.71 12.403L19.564 11.8393C18.9035 10.8387 18.1525 9.95653 17.3102 9.19499L16.624 9.95398ZM20.0028 7.31482C18.8635 7.78198 17.7535 8.39643 16.6729 9.15592L17.2612 9.99305C18.2844 9.27395 19.3277 8.69753 20.391 8.26153L20.0028 7.31482ZM22.4662 6.4644C21.7357 6.63904 20.9111 6.9255 19.9954 7.31794L20.3984 8.25842C21.2788 7.88114 22.0464 7.6168 22.7041 7.45956L22.4662 6.4644ZM24.4406 6.17982C23.859 6.17716 23.1958 6.2768 22.4578 6.46648L22.7125 7.45747C23.3968 7.2816 23.9689 7.20087 24.4359 7.20301L24.4406 6.17982ZM26.6428 6.88987C26.119 6.38425 25.3454 6.18396 24.4406 6.17982L24.4359 7.20301C25.2222 7.2066 25.6814 7.384 25.9321 7.62603L26.6428 6.88987ZM27.4013 8.68361C27.4047 7.96036 27.1525 7.33933 26.6261 6.87447L25.9488 7.64142C26.2309 7.89054 26.3803 8.2184 26.3782 8.67893L27.4013 8.68361ZM26.0647 11.8287C26.9107 10.7288 27.3968 9.67463 27.4013 8.68361L26.3782 8.67893C26.3751 9.3452 26.0408 10.1814 25.2536 11.2049L26.0647 11.8287ZM22.3406 14.8409C23.9431 13.9621 25.1932 12.9616 26.0647 11.8287L25.2536 11.2049C24.4919 12.1953 23.3656 13.1118 21.8486 13.9438L22.3406 14.8409ZM21.5714 15.2341C21.8381 15.1111 22.0964 14.979 22.3464 14.8377L21.8428 13.947C21.618 14.0741 21.3848 14.1934 21.143 14.3049L21.5714 15.2341ZM10.0852 14.8878C10.8642 13.9355 11.7605 13.0222 12.7755 12.1485L12.1079 11.373C11.0515 12.2824 10.1128 13.238 9.29322 14.24L10.0852 14.8878ZM6.51013 12.2472C7.27514 13.3972 8.25024 14.3185 9.43193 15.0061L9.94652 14.1217C8.90181 13.5139 8.04149 12.7018 7.36204 11.6805L6.51013 12.2472ZM6.45873 12.1694L6.50911 12.2457L7.36306 11.682L7.31267 11.6057L6.45873 12.1694ZM9.88792 9.94373C8.60333 9.93785 7.4725 10.4949 6.50933 11.541L7.26207 12.2341C8.06647 11.3604 8.93557 10.9626 9.88324 10.9669L9.88792 9.94373ZM11.1124 10.1617C10.7394 10.0147 10.3285 9.94574 9.88792 9.94373L9.88324 10.9669C10.2206 10.9685 10.5024 11.0211 10.7372 11.1136L11.1124 10.1617ZM10.9681 10.1779C11.0323 10.1568 11.0828 10.1597 11.1046 10.1625C11.1259 10.1653 11.1313 10.1693 11.117 10.1635L10.7326 11.1118C10.857 11.1622 11.0644 11.2231 11.2872 11.15L10.9681 10.1779ZM10.6927 10.5351C10.693 10.4706 10.7107 10.4025 10.7475 10.3419C10.7821 10.2847 10.8226 10.2523 10.8458 10.237L11.4095 11.0909C11.57 10.9849 11.7147 10.7978 11.7159 10.5398L10.6927 10.5351ZM10.9771 10.9059C10.9338 10.8949 10.8489 10.8617 10.7784 10.7727C10.7065 10.682 10.6925 10.5878 10.6927 10.5351L11.7159 10.5398C11.7164 10.4195 11.6857 10.2702 11.5803 10.1371C11.4761 10.0057 11.3406 9.94266 11.2298 9.9144L10.9771 10.9059ZM10.3647 10.7095C10.5332 10.7362 10.707 10.7897 10.8869 10.8737L11.3199 9.94663C11.0611 9.82571 10.7958 9.74186 10.5249 9.69892L10.3647 10.7095ZM9.75792 10.6366C9.95786 10.6375 10.1474 10.6597 10.3275 10.7022L10.5621 9.70624C10.303 9.6452 10.0362 9.61463 9.7626 9.61338L9.75792 10.6366ZM7.0446 11.8695C7.90111 11.0208 8.80149 10.6322 9.75792 10.6366L9.7626 9.61338C8.48676 9.60755 7.33664 10.1397 6.32441 11.1427L7.0446 11.8695ZM5.72373 9.87821C5.72101 10.4738 5.90244 11.0968 6.22848 11.738L7.14053 11.2742C6.86318 10.7288 6.74516 10.2681 6.74692 9.88289L5.72373 9.87821ZM7.01456 7.43842C6.17224 8.03428 5.72838 8.86121 5.72373 9.87821L6.74692 9.88289C6.75001 9.20877 7.0226 8.68607 7.60546 8.27375L7.01456 7.43842ZM10.0554 6.59602C8.87685 6.59063 7.85356 6.85872 7.0192 7.43518L7.60082 8.277C8.22546 7.84544 9.03089 7.61454 10.0508 7.61921L10.0554 6.59602ZM12.5371 7.01028C11.6701 6.74055 10.842 6.59961 10.0554 6.59602L10.0508 7.61921C10.7185 7.62226 11.4451 7.74211 12.2331 7.98729L12.5371 7.01028ZM15.2327 8.35834C14.3373 7.73776 13.4378 7.28497 12.5343 7.00944L12.2358 7.98813C13.0212 8.22766 13.8259 8.62825 14.6499 9.19933L15.2327 8.35834ZM16.0141 8.89289L15.2302 8.35659L14.6525 9.20108L15.4364 9.73738L16.0141 8.89289ZM12.7759 12.1481C13.8104 11.2554 14.8849 10.4552 15.9996 9.74695L15.4509 8.88332C14.2928 9.6191 13.1784 10.4493 12.1075 11.3734L12.7759 12.1481ZM15.4386 16.5224C17.1346 16.5301 18.7734 16.2664 20.3525 15.7306L20.0237 14.7616C18.5541 15.2604 17.0281 15.5064 15.4433 15.4992L15.4386 16.5224ZM13.1504 16.3277C13.9044 16.454 14.6673 16.5189 15.4386 16.5224L15.4433 15.4992C14.7265 15.4959 14.0186 15.4357 13.3194 15.3186L13.1504 16.3277ZM10.9502 15.7336C11.6576 16.0026 12.3912 16.2005 13.1504 16.3277L13.3194 15.3186C12.6253 15.2023 11.957 15.0218 11.3138 14.7772L10.9502 15.7336ZM13.1951 11.9859C12.2551 12.9173 11.426 13.9113 10.7087 14.9681L11.5553 15.5428C12.2341 14.5427 13.0205 13.5994 13.9153 12.7127L13.1951 11.9859ZM16.1875 9.48485C15.1471 10.2233 14.1508 11.0561 13.1984 11.9826L13.9119 12.716C14.8282 11.8246 15.7841 11.0259 16.7797 10.3192L16.1875 9.48485ZM19.1463 12.0246C18.4661 11.0735 17.6872 10.2341 16.8098 9.50793L16.1574 10.2962C16.9648 10.9644 17.6837 11.7384 18.3141 12.6198L19.1463 12.0246ZM20.6801 15.1057C20.3629 13.9943 19.8485 12.9637 19.14 12.0159L18.3205 12.6285C18.9566 13.4795 19.4141 14.3982 19.6962 15.3865L20.6801 15.1057ZM7.42324 20.1946C7.49072 19.8973 7.56665 19.5912 7.65108 19.2763L6.66277 19.0114C6.57515 19.3382 6.49602 19.6571 6.42543 19.9681L7.42324 20.1946ZM5.15973 18.1969C5.45256 18.9951 5.91836 19.738 6.54645 20.4262L7.30222 19.7365C6.7524 19.134 6.362 18.5032 6.12032 17.8445L5.15973 18.1969ZM4.73242 15.8603C4.72887 16.6369 4.87344 17.4166 5.15973 18.1969L6.12032 17.8445C5.87211 17.168 5.75267 16.509 5.75561 15.865L4.73242 15.8603ZM5.97732 12.2233C5.15005 13.2478 4.73879 14.4688 4.73242 15.8603L5.75561 15.865C5.761 14.6861 6.10396 13.6951 6.77338 12.8662L5.97732 12.2233ZM6.07937 12.097L5.97732 12.2233L6.77337 12.8662L6.87542 12.7398L6.07937 12.097ZM8.10696 13.4901C7.66447 13.0914 7.26009 12.6357 6.89418 12.1217L6.06061 12.7151C6.46767 13.2869 6.92135 13.7991 7.42201 14.2503L8.10696 13.4901ZM9.60909 14.5482C9.06507 14.2409 8.56235 13.8863 8.1003 13.4842L7.42867 14.2562C7.9436 14.7042 8.50289 15.0985 9.10588 15.4391L9.60909 14.5482ZM7.96588 18.3469C8.37307 17.3343 8.96909 16.3214 9.76058 15.3087L8.95439 14.6786C8.11282 15.7554 7.46466 16.8508 7.01656 17.9651L7.96588 18.3469ZM7.64407 19.3001C7.7453 18.9846 7.85504 18.6603 7.97332 18.3272L7.00912 17.9848C6.88754 18.3271 6.77442 18.6614 6.66978 18.9875L7.64407 19.3001ZM13.5806 23.4391C14.8638 23.445 16.068 23.2095 17.1873 22.7282L16.7831 21.7882C15.8012 22.2105 14.7372 22.4212 13.5852 22.416L13.5806 23.4391ZM11.2028 23.1346C12.0006 23.3335 12.7934 23.4355 13.5806 23.4391L13.5852 22.416C12.8842 22.4127 12.1728 22.3219 11.4503 22.1418L11.2028 23.1346ZM8.85486 22.2155C9.61604 22.6272 10.3988 22.9342 11.2028 23.1346L11.4503 22.1418C10.7339 21.9632 10.0312 21.6884 9.34157 21.3155L8.85486 22.2155ZM8.66486 22.1197L8.86733 22.2221L9.3291 21.309L9.12663 21.2066L8.66486 22.1197ZM8.38468 21.9179L8.58692 22.071L9.20457 21.2552L9.00234 21.1021L8.38468 21.9179ZM8.40509 20.1717C8.29632 20.6159 8.2222 21.0466 8.18404 21.4633L9.20298 21.5566C9.23602 21.1958 9.3009 20.8154 9.39893 20.415L8.40509 20.1717ZM8.77202 18.8077C8.63279 19.2867 8.51043 19.7414 8.40509 20.1717L9.39893 20.415C9.50039 20.0006 9.61888 19.5601 9.75456 19.0933L8.77202 18.8077ZM10.4212 15.4078C9.73468 16.4709 9.1872 17.5967 8.77942 18.7844L9.74717 19.1166C10.1278 18.008 10.6388 16.957 11.2808 15.9629L10.4212 15.4078ZM13.0874 15.7231C12.3719 15.6059 11.6824 15.4321 11.0185 15.202L10.6835 16.1688C11.4041 16.4185 12.1505 16.6065 12.922 16.7328L13.0874 15.7231ZM15.2639 15.9042C14.5295 15.9009 13.8041 15.8405 13.0874 15.7231L12.922 16.7328C13.6924 16.859 14.4716 16.9238 15.2592 16.9274L15.2639 15.9042ZM20.1252 15.142C18.5887 15.6572 16.9692 15.912 15.2639 15.9042L15.2592 16.9274C17.0714 16.9357 18.8028 16.6647 20.4505 16.1121L20.1252 15.142ZM20.8899 16.0668L20.7909 15.5336L19.7849 15.7205L19.8839 16.2537L20.8899 16.0668ZM20.97 16.7C20.9528 16.5001 20.9266 16.2928 20.8919 16.0784L19.8819 16.242C19.9129 16.4338 19.9358 16.6158 19.9506 16.788L20.97 16.7ZM20.9947 17.3045C20.9957 17.103 20.9874 16.9015 20.97 16.7L19.9506 16.788C19.9654 16.9588 19.9723 17.1294 19.9716 17.2999L20.9947 17.3045ZM19.9113 20.6279C20.6326 19.6877 20.989 18.5716 20.9947 17.3045L19.9716 17.2999C19.9667 18.3666 19.6712 19.2599 19.0995 20.005L19.9113 20.6279ZM17.1873 22.7282C18.3129 22.2441 19.2274 21.5434 19.9153 20.6226L19.0956 20.0102C18.5243 20.7749 17.7586 21.3687 16.7831 21.7882L17.1873 22.7282Z" fill="#121212"/>
</g>
<defs>
<filter id="filter0_f_815_1496" x="2.84648" y="4.44805" width="26.4389" height="24.6732" filterUnits="userSpaceOnUse" color-interpolation-filters="sRGB">
<feFlood flood-opacity="0" result="BackgroundImageFix"/>
<feBlend mode="normal" in="SourceGraphic" in2="BackgroundImageFix" result="shape"/>
<feGaussianBlur stdDeviation="0.65" result="effect1_foregroundBlur_815_1496"/>
</filter>
</defs>
</svg>
