<svg width="32" height="32" viewBox="0 0 32 32" fill="none" xmlns="http://www.w3.org/2000/svg">
<g clip-path="url(#clip0_815_1496)">
<rect width="32" height="32" fill="#E1E1E1"/>
<g filter="url(#filter0_f_815_1496)">
<path fill-rule="evenodd" clip-rule="evenodd" d="M9.15126 27.5529C10.1182 28.0518 11.2049 28.304 12.4114 28.3095C13.3212 28.3136 14.2712 28.1696 15.2615 27.8775C16.2517 27.6051 17.2426 27.1844 18.2342 26.6153C19.6025 25.8304 20.8529 24.8867 21.9854 23.7843C22.3442 23.4348 22.6792 23.0842 22.9901 22.7326V22.1066V21.9963C22.9166 22.0787 22.8412 22.1616 22.7638 22.2451C22.1078 22.9541 21.3629 23.6529 20.529 24.3413C19.715 25.0101 18.842 25.6094 17.91 26.1391C16.9383 26.6885 16.0068 27.0996 15.1155 27.3724C14.2241 27.6651 13.4125 27.8097 12.6807 27.8063C11.2962 27.8 10.2104 27.3401 9.42342 26.4267C8.63635 25.533 8.2565 24.2555 8.28387 22.5942C9.09281 23.0331 9.93196 23.3534 10.8013 23.5551C11.6905 23.757 12.5702 23.8599 13.4404 23.8639C14.6074 23.8692 15.7355 23.7063 16.8249 23.375C17.9341 23.024 18.9154 22.5341 19.7688 21.905C20.642 21.2761 21.3278 20.5078 21.8265 19.6003C22.3449 18.6928 22.6067 17.6754 22.6118 16.548C22.6125 16.3898 22.6034 16.2315 22.5843 16.0732C22.585 15.9149 22.5758 15.7666 22.5567 15.628C22.5378 15.4301 22.509 15.2421 22.4703 15.0639C22.4316 14.8659 22.3929 14.6779 22.3542 14.4997C23.0278 14.2456 23.6918 13.952 24.346 13.6187C25.6546 12.9324 26.7558 12.176 27.6496 11.3493C28.5435 10.5029 29.21 9.66536 29.6489 8.83665C30.1077 7.98824 30.3387 7.20802 30.342 6.49599C30.3457 5.68506 30.0421 5.02107 29.4314 4.50402C28.8404 3.96729 27.9318 3.69611 26.7056 3.69051C26.0529 3.68752 25.3009 3.77309 24.4496 3.94721C23.6181 4.10164 22.6873 4.37429 21.657 4.76516C20.924 5.01894 20.1907 5.33205 19.4572 5.7045C18.7237 6.05717 17.9901 6.4494 17.2563 6.88118C17.0396 6.70218 16.8129 6.53302 16.5763 6.37371C16.3594 6.21448 16.1425 6.06515 15.9256 5.9257C14.7819 5.16886 13.6767 4.62977 12.6101 4.30843C11.5435 3.98709 10.5652 3.82438 9.67514 3.82031C8.66643 3.8157 7.77557 3.98964 7.00257 4.34213C6.24935 4.69471 5.65378 5.17657 5.21584 5.78772C4.79778 6.37918 4.58707 7.04082 4.58372 7.77263C4.58038 8.50444 4.7946 9.23725 5.22638 9.97105L5.49136 10.4173L5.46142 10.4765C4.92432 11.1465 4.48562 11.9258 4.14531 12.8143C3.82487 13.6831 3.66253 14.5823 3.65827 15.5119C3.65393 16.4613 3.84733 17.4215 4.23848 18.3924C4.62971 19.3436 5.2586 20.2267 6.12516 21.0416C6.10466 21.1997 6.08411 21.3677 6.06352 21.5457L6.06134 22.0204C6.05529 23.3455 6.32703 24.4742 6.87658 25.4063C7.44592 26.3385 8.20414 27.054 9.15126 27.5529ZM23.1888 13.6431C22.8915 13.7802 22.5744 13.9172 22.2375 14.0541C21.8871 12.8262 21.3387 11.6567 20.5921 10.5457C19.8457 9.41486 18.9997 8.42204 18.0542 7.56721C19.2845 6.70256 20.5437 6.00615 21.8317 5.47801C22.8821 5.02789 23.8132 4.70579 24.625 4.51171C25.4567 4.29795 26.1791 4.19247 26.7923 4.19527C27.7812 4.19979 28.5021 4.42066 28.955 4.85787C29.4278 5.27539 29.6626 5.83028 29.6595 6.52254C29.655 7.49169 29.1753 8.59713 28.2202 9.83885C27.2651 11.0806 25.8755 12.2016 24.0512 13.202C23.7736 13.359 23.4861 13.506 23.1888 13.6431ZM12.7615 10.1242C11.5502 11.1669 10.4772 12.2598 9.54232 13.4027C8.24036 12.6451 7.16703 11.6315 6.32234 10.3618L6.26341 10.2725C7.29706 9.1498 8.46658 8.59144 9.77197 8.59741C10.2269 8.59949 10.632 8.67057 10.9874 8.81065C11.0861 8.85066 11.1652 8.86091 11.2246 8.8414C11.2841 8.80212 11.314 8.75281 11.3143 8.69347C11.3147 8.61435 11.2753 8.56473 11.1963 8.54459C10.9397 8.42474 10.683 8.34445 10.426 8.30371C10.1692 8.2432 9.9023 8.21231 9.62539 8.21105C8.32 8.20508 7.1209 8.74352 6.0281 9.82638C5.67525 9.13249 5.50013 8.49876 5.50276 7.92518C5.50728 6.93624 5.92625 6.14699 6.75967 5.55743C7.61286 4.96796 8.68227 4.67616 9.96789 4.68204C10.8184 4.68593 11.7275 4.83843 12.6953 5.13954C13.6829 5.44075 14.6795 5.93978 15.685 6.63665L16.6019 7.26388C15.2728 8.10831 13.9927 9.06174 12.7615 10.1242ZM21.8215 14.2006C20.0386 14.8056 18.1879 15.1037 16.2694 15.0949C15.3991 15.0909 14.539 15.0178 13.6892 14.8754C12.8393 14.7331 12.0195 14.5118 11.2297 14.2115C12.0462 13.0087 12.9909 11.8757 14.0638 10.8125C15.1565 9.74944 16.2982 8.79538 17.4888 7.95032C18.474 8.76577 19.3499 9.70928 20.1164 10.7809C20.9027 11.8327 21.4711 12.9726 21.8215 14.2006ZM6.58062 18.7592C6.48001 19.1345 6.38934 19.5 6.30859 19.8557C5.61977 19.1009 5.11908 18.2976 4.80651 17.4456C4.49394 16.5937 4.33955 15.7524 4.34335 14.9217C4.35023 13.4185 4.79128 12.125 5.66652 11.0411L5.78587 10.8933C6.23789 11.5283 6.73967 12.0943 7.29121 12.5913C7.86253 13.0884 8.48357 13.5264 9.15433 13.9053C8.19934 15.1272 7.47177 16.3601 6.9716 17.6039C6.83134 17.9988 6.70102 18.3839 6.58062 18.7592ZM18.0754 22.4016C16.8467 22.9301 15.5203 23.191 14.0962 23.1845C13.226 23.1805 12.3463 23.0677 11.4573 22.8461C10.5682 22.6244 9.6995 22.2842 8.85109 21.8254L8.61429 21.7057L8.37776 21.5266C8.4194 21.0718 8.50068 20.5975 8.62162 20.1036C8.74255 19.6097 8.8834 19.0862 9.04416 18.5331C9.50522 17.1902 10.1242 15.9173 10.9011 14.7143C11.7107 14.9949 12.5504 15.2065 13.42 15.3489C14.2896 15.4913 15.1695 15.5646 16.0595 15.5686C18.1165 15.578 20.076 15.2705 21.9381 14.6461L22.054 15.2697C22.0924 15.5072 22.1211 15.7348 22.1398 15.9525C22.1586 16.1701 22.1675 16.3877 22.1665 16.6053C22.1603 17.97 21.7791 19.1451 21.023 20.1306C20.2867 21.1162 19.3041 21.8732 18.0754 22.4016Z" fill="#121212"/>
<path d="M12.4114 28.3095L12.4137 27.7979L12.4137 27.7979L12.4114 28.3095ZM9.15126 27.5529L8.91285 28.0055L8.91667 28.0075L9.15126 27.5529ZM15.2615 27.8775L15.1258 27.3841L15.1168 27.3868L15.2615 27.8775ZM18.2342 26.6153L17.9796 26.1715L17.9795 26.1716L18.2342 26.6153ZM21.9854 23.7843L22.3422 24.1509L22.3423 24.1508L21.9854 23.7843ZM22.9901 22.7326L23.3733 23.0715L23.5017 22.9264V22.7326H22.9901ZM22.9901 21.9963H23.5017V20.6537L22.6082 21.6558L22.9901 21.9963ZM22.7638 22.2451L22.3887 21.8972L22.3882 21.8977L22.7638 22.2451ZM20.529 24.3413L20.8538 24.7366L20.8548 24.7358L20.529 24.3413ZM17.91 26.1391L18.1618 26.5845L18.1628 26.5839L17.91 26.1391ZM15.1155 27.3724L14.9657 26.8832L14.9559 26.8864L15.1155 27.3724ZM12.6807 27.8063L12.6783 28.3179L12.6783 28.3179L12.6807 27.8063ZM9.42342 26.4267L9.81104 26.0927L9.80735 26.0886L9.42342 26.4267ZM8.28387 22.5942L8.52782 22.1445L7.78624 21.7422L7.77234 22.5858L8.28387 22.5942ZM10.8013 23.5551L10.6857 24.0535L10.6881 24.054L10.8013 23.5551ZM13.4404 23.8639L13.4428 23.3523L13.4428 23.3523L13.4404 23.8639ZM16.8249 23.375L16.9737 23.8645L16.9792 23.8628L16.8249 23.375ZM19.7688 21.905L19.4698 21.4899L19.4652 21.4932L19.7688 21.905ZM21.8265 19.6003L21.3822 19.3465L21.3781 19.3539L21.8265 19.6003ZM22.6118 16.548L23.1234 16.5503L23.1234 16.5503L22.6118 16.548ZM22.5843 16.0732L22.0727 16.0708L22.0726 16.1027L22.0764 16.1343L22.5843 16.0732ZM22.5567 15.628L22.0474 15.6766L22.0484 15.6873L22.0499 15.698L22.5567 15.628ZM22.4703 15.0639L21.968 15.162L21.9703 15.1726L22.4703 15.0639ZM22.3542 14.4997L22.1736 14.021L21.7604 14.1768L21.8542 14.6084L22.3542 14.4997ZM24.346 13.6187L24.5782 14.0746L24.5836 14.0718L24.346 13.6187ZM27.6496 11.3493L27.997 11.725L28.0013 11.7208L27.6496 11.3493ZM29.6489 8.83665L29.1989 8.59328L29.1968 8.59719L29.6489 8.83665ZM30.342 6.49599L30.8536 6.49833L30.8536 6.49833L30.342 6.49599ZM29.4314 4.50402L29.0874 4.88272L29.094 4.88873L29.1008 4.8945L29.4314 4.50402ZM26.7056 3.69051L26.7032 4.2021L26.7056 3.69051ZM24.4496 3.94721L24.543 4.45029L24.5521 4.44843L24.4496 3.94721ZM21.657 4.76516L21.8243 5.24861L21.8314 5.24615L21.8384 5.2435L21.657 4.76516ZM19.4572 5.7045L19.6789 6.16567L19.6888 6.16067L19.4572 5.7045ZM17.2563 6.88118L16.9306 7.27565L17.2069 7.50387L17.5158 7.32211L17.2563 6.88118ZM16.5763 6.37371L16.2735 6.78607L16.2819 6.79225L16.2905 6.79808L16.5763 6.37371ZM15.9256 5.9257L15.6433 6.35239L15.649 6.35606L15.9256 5.9257ZM12.6101 4.30843L12.7577 3.81858L12.7577 3.81858L12.6101 4.30843ZM9.67514 3.82031L9.6728 4.33191L9.67514 3.82031ZM7.00257 4.34213L6.7903 3.87662L6.78568 3.87878L7.00257 4.34213ZM5.21584 5.78772L4.79998 5.48972L4.79807 5.49242L5.21584 5.78772ZM4.58372 7.77263L5.09532 7.77497L5.09532 7.77497L4.58372 7.77263ZM5.22638 9.97105L4.78545 10.2305L4.78649 10.2323L5.22638 9.97105ZM5.49136 10.4173L5.9479 10.6482L6.07464 10.3976L5.93125 10.1561L5.49136 10.4173ZM5.46142 10.4765L5.8606 10.7965L5.89392 10.7549L5.91796 10.7074L5.46142 10.4765ZM4.14531 12.8143L3.66752 12.6313L3.66531 12.6373L4.14531 12.8143ZM3.65827 15.5119L4.16987 15.5143L3.65827 15.5119ZM4.23848 18.3924L3.76392 18.5836L3.76534 18.587L4.23848 18.3924ZM6.12516 21.0416L6.63251 21.1074L6.66613 20.848L6.47564 20.6689L6.12516 21.0416ZM6.06352 21.5457L5.55531 21.4868L5.55205 21.515L5.55192 21.5433L6.06352 21.5457ZM6.06134 22.0204L6.57294 22.0227L6.57294 22.0227L6.06134 22.0204ZM6.87658 25.4063L6.43582 25.6662L6.43997 25.673L6.87658 25.4063ZM22.2375 14.0541L21.7456 14.1945L21.902 14.7427L22.4302 14.5281L22.2375 14.0541ZM23.1888 13.6431L22.9746 13.1785L22.9746 13.1785L23.1888 13.6431ZM20.5921 10.5457L20.1651 10.8275L20.1675 10.831L20.5921 10.5457ZM18.0542 7.56721L17.7601 7.14865L17.2359 7.51704L17.7111 7.9467L18.0542 7.56721ZM21.8317 5.47801L22.0258 5.95142L22.0332 5.94825L21.8317 5.47801ZM24.625 4.51171L24.744 5.00936L24.7523 5.00721L24.625 4.51171ZM26.7923 4.19527L26.7946 3.68367L26.7946 3.68367L26.7923 4.19527ZM28.955 4.85787L28.5997 5.22595L28.6079 5.23383L28.6164 5.24134L28.955 4.85787ZM29.6595 6.52254L29.1479 6.5202L29.1479 6.5202L29.6595 6.52254ZM28.2202 9.83885L27.8147 9.52694L27.8147 9.52694L28.2202 9.83885ZM24.0512 13.202L23.8052 12.7534L23.7994 12.7567L24.0512 13.202ZM9.54232 13.4027L9.28502 13.8449L9.6621 14.0643L9.93832 13.7266L9.54232 13.4027ZM12.7615 10.1242L13.0953 10.5119L13.0958 10.5115L12.7615 10.1242ZM6.32234 10.3618L5.89536 10.6436L5.89638 10.6451L6.32234 10.3618ZM6.26341 10.2725L5.88704 9.92596L5.61599 10.2203L5.83644 10.5543L6.26341 10.2725ZM9.77197 8.59741L9.77431 8.08582L9.77431 8.08582L9.77197 8.59741ZM10.9874 8.81065L11.1796 8.33649L11.175 8.33469L10.9874 8.81065ZM11.2246 8.8414L11.3842 9.32748L11.4493 9.30611L11.5065 9.26838L11.2246 8.8414ZM11.3143 8.69347L10.8027 8.69113L10.8027 8.69113L11.3143 8.69347ZM11.1963 8.54459L10.9798 9.00811L11.0234 9.02846L11.07 9.04034L11.1963 8.54459ZM10.426 8.30371L10.3087 8.80168L10.3272 8.80603L10.3459 8.809L10.426 8.30371ZM9.62539 8.21105L9.62773 7.69945L9.62773 7.69945L9.62539 8.21105ZM6.0281 9.82638L5.57207 10.0583L5.88999 10.6835L6.3882 10.1898L6.0281 9.82638ZM5.50276 7.92518L6.01435 7.92752L6.01435 7.92752L5.50276 7.92518ZM6.75967 5.55743L6.46884 5.1365L6.46421 5.13977L6.75967 5.55743ZM9.96789 4.68204L9.97023 4.17045L9.97023 4.17045L9.96789 4.68204ZM12.6953 5.13954L12.5433 5.62805L12.5461 5.62889L12.6953 5.13954ZM15.685 6.63665L15.3936 7.05715L15.3961 7.05889L15.685 6.63665ZM16.6019 7.26388L16.8762 7.6957L17.531 7.27967L16.8907 6.84164L16.6019 7.26388ZM16.2694 15.0949L16.267 15.6065L16.267 15.6065L16.2694 15.0949ZM21.8215 14.2006L21.9859 14.685L22.4471 14.5285L22.3135 14.0602L21.8215 14.2006ZM13.6892 14.8754L13.7737 14.3708L13.7737 14.3708L13.6892 14.8754ZM11.2297 14.2115L10.8064 13.9241L10.4429 14.4596L11.0479 14.6897L11.2297 14.2115ZM14.0638 10.8125L13.707 10.4458L13.7037 10.4491L14.0638 10.8125ZM17.4888 7.95032L17.815 7.5562L17.5127 7.30599L17.1927 7.53312L17.4888 7.95032ZM20.1164 10.7809L19.7002 11.0786L19.7066 11.0872L20.1164 10.7809ZM6.30859 19.8557L5.93071 20.2005L6.59073 20.9237L6.8075 19.9689L6.30859 19.8557ZM6.58062 18.7592L6.09348 18.6029L6.08969 18.6147L6.08647 18.6267L6.58062 18.7592ZM4.80651 17.4456L4.32622 17.6219L4.32622 17.6219L4.80651 17.4456ZM4.34335 14.9217L4.85495 14.924L4.85495 14.924L4.34335 14.9217ZM5.66652 11.0411L5.26849 10.7197L5.26849 10.7197L5.66652 11.0411ZM5.78587 10.8933L6.20266 10.5967L5.81155 10.0472L5.38784 10.5719L5.78587 10.8933ZM7.29121 12.5913L6.94868 12.9715L6.9554 12.9773L7.29121 12.5913ZM9.15433 13.9053L9.55742 14.2203L9.92336 13.7521L9.40593 13.4598L9.15433 13.9053ZM6.9716 17.6039L6.49694 17.413L6.49302 17.4228L6.4895 17.4327L6.9716 17.6039ZM14.0962 23.1845L14.0986 22.6729L14.0986 22.6729L14.0962 23.1845ZM11.4573 22.8461L11.581 22.3497L11.581 22.3497L11.4573 22.8461ZM8.85109 21.8254L9.09454 21.3752L9.08198 21.3689L8.85109 21.8254ZM8.61429 21.7057L8.30546 22.1135L8.34224 22.1414L8.38341 22.1622L8.61429 21.7057ZM8.37776 21.5266L7.86829 21.4799L7.84238 21.7629L8.06893 21.9345L8.37776 21.5266ZM8.62162 20.1036L9.11854 20.2253L9.11854 20.2253L8.62162 20.1036ZM9.04416 18.5331L8.56028 18.367L8.55631 18.3785L8.55289 18.3903L9.04416 18.5331ZM10.9011 14.7143L11.0686 14.2309L10.6892 14.0994L10.4713 14.4368L10.9011 14.7143ZM16.0595 15.5686L16.0572 16.0802L16.0572 16.0802L16.0595 15.5686ZM21.9381 14.6461L22.4411 14.5527L22.3336 13.9739L21.7755 14.1611L21.9381 14.6461ZM22.054 15.2697L22.5591 15.1879L22.557 15.1763L22.054 15.2697ZM22.1665 16.6053L21.6549 16.603L21.6549 16.603L22.1665 16.6053ZM21.023 20.1306L20.6171 19.8192L20.6131 19.8244L21.023 20.1306ZM12.4137 27.7979C11.2791 27.7927 10.2734 27.5562 9.38585 27.0982L8.91667 28.0075C9.96293 28.5474 11.1306 28.8152 12.409 28.8211L12.4137 27.7979ZM15.1168 27.3868C14.1679 27.6667 13.2675 27.8018 12.4137 27.7979L12.409 28.8211C13.3748 28.8255 14.3746 28.6726 15.4063 28.3682L15.1168 27.3868ZM17.9795 26.1716C17.0212 26.7216 16.0701 27.1245 15.1258 27.3842L15.3972 28.3708C16.4334 28.0857 17.464 27.6472 18.4888 27.059L17.9795 26.1716ZM21.6285 23.4177C20.5267 24.4903 19.3107 25.408 17.9796 26.1715L18.4887 27.0591C19.8943 26.2528 21.1791 25.2832 22.3422 24.1509L21.6285 23.4177ZM22.6068 22.3937C22.3049 22.7352 21.9788 23.0766 21.6284 23.4178L22.3423 24.1508C22.7097 23.793 23.0534 23.4333 23.3733 23.0715L22.6068 22.3937ZM23.5017 22.7326V22.1066H22.4785V22.7326H23.5017ZM23.5017 22.1066V21.9963H22.4785V22.1066H23.5017ZM23.1389 22.593C23.2185 22.5071 23.2962 22.4217 23.372 22.3367L22.6082 21.6558C22.537 21.7357 22.4638 21.8161 22.3887 21.8972L23.1389 22.593ZM20.8548 24.7358C21.7042 24.0345 22.4661 23.3202 23.1393 22.5925L22.3882 21.8977C21.7495 22.5881 21.0216 23.2712 20.2033 23.9468L20.8548 24.7358ZM18.1628 26.5839C19.1197 26.04 20.0169 25.4242 20.8538 24.7366L20.2043 23.946C19.4132 24.596 18.5643 25.1788 17.6572 25.6944L18.1628 26.5839ZM15.2652 27.8616C16.1982 27.5761 17.1639 27.1487 18.1618 26.5845L17.6582 25.6938C16.7127 26.2284 15.8154 26.6232 14.9657 26.8833L15.2652 27.8616ZM12.6783 28.3179C13.4781 28.3216 14.3454 28.1637 15.275 27.8585L14.9559 26.8864C14.1028 27.1664 13.3468 27.2978 12.683 27.2948L12.6783 28.3179ZM9.03584 26.7606C9.93433 27.8035 11.1701 28.311 12.6783 28.3179L12.683 27.2948C11.4222 27.289 10.4865 26.8768 9.81101 26.0928L9.03584 26.7606ZM7.77234 22.5858C7.7437 24.324 8.13995 25.7435 9.0395 26.7648L9.80735 26.0886C9.13275 25.3226 8.76929 24.187 8.7954 22.6027L7.77234 22.5858ZM10.917 23.0568C10.0938 22.8657 9.29764 22.5621 8.52782 22.1445L8.03992 23.0439C8.88797 23.504 9.77016 23.841 10.6857 24.0535L10.917 23.0568ZM13.4428 23.3523C12.6116 23.3485 11.769 23.2502 10.9146 23.0562L10.6881 24.054C11.6119 24.2638 12.5288 24.3713 13.4381 24.3755L13.4428 23.3523ZM16.676 22.8855C15.6369 23.2015 14.5598 23.3574 13.4428 23.3523L13.4381 24.3755C14.6549 24.381 15.8341 24.211 16.9737 23.8645L16.676 22.8855ZM19.4652 21.4932C18.6613 22.0858 17.7314 22.5516 16.6706 22.8872L16.9792 23.8628C18.1368 23.4965 19.1696 22.9823 20.0724 22.3168L19.4652 21.4932ZM21.3781 19.3539C20.9175 20.1922 20.2837 20.9036 19.4698 21.4899L20.0678 22.3201C21.0002 21.6485 21.7382 20.8235 22.2749 19.8466L21.3781 19.3539ZM22.1002 16.5457C22.0954 17.592 21.8535 18.5216 21.3823 19.3465L22.2707 19.854C22.8363 18.864 23.1179 17.7588 23.1234 16.5503L22.1002 16.5457ZM22.0764 16.1343C22.0929 16.2717 22.1008 16.4088 22.1002 16.5457L23.1234 16.5503C23.1242 16.3707 23.1138 16.1913 23.0923 16.012L22.0764 16.1343ZM22.0499 15.698C22.0653 15.8097 22.0734 15.9337 22.0727 16.0708L23.0959 16.0755C23.0967 15.8962 23.0863 15.7234 23.0635 15.558L22.0499 15.698ZM21.9703 15.1726C22.0044 15.3293 22.0303 15.4971 22.0474 15.6766L23.066 15.5794C23.0453 15.3631 23.0136 15.1549 22.9702 14.9552L21.9703 15.1726ZM21.8542 14.6084C21.8921 14.7827 21.9301 14.9672 21.9681 15.1619L22.9724 14.9659C22.9331 14.7647 22.8937 14.5731 22.8541 14.391L21.8542 14.6084ZM24.1138 13.1629C23.476 13.4877 22.8293 13.7737 22.1736 14.021L22.5347 14.9784C23.2263 14.7175 23.9075 14.4162 24.5782 14.0746L24.1138 13.1629ZM27.3022 10.9737C26.4476 11.7642 25.3853 12.496 24.1084 13.1657L24.5836 14.0718C25.9238 13.3689 27.064 12.5878 27.997 11.7249L27.3022 10.9737ZM29.1968 8.59719C28.7906 9.36408 28.1633 10.1584 27.2978 10.9778L28.0013 11.7208C28.9238 10.8474 29.6293 9.96664 30.101 9.0761L29.1968 8.59719ZM29.8304 6.49365C29.8276 7.09697 29.6312 7.79385 29.1989 8.59329L30.0989 9.08C30.5842 8.18264 30.8498 7.31907 30.8536 6.49833L29.8304 6.49365ZM29.1008 4.8945C29.5944 5.31232 29.8334 5.83165 29.8304 6.49365L30.8536 6.49833C30.858 5.53847 30.4899 4.72983 29.7619 4.11355L29.1008 4.8945ZM26.7032 4.2021C27.8684 4.20743 28.6291 4.46649 29.0874 4.88272L29.7753 4.12532C29.0517 3.46808 27.9952 3.1848 26.7079 3.17891L26.7032 4.2021ZM24.5521 4.44843C25.3795 4.2792 26.0951 4.19932 26.7032 4.2021L26.7079 3.17891C26.0106 3.17572 25.2223 3.26697 24.347 3.44598L24.5521 4.44843ZM21.8384 5.2435C22.8482 4.8604 23.749 4.59768 24.543 4.4502L24.3561 3.44421C23.4873 3.6056 22.5263 3.88818 21.4755 4.28683L21.8384 5.2435ZM19.6888 6.16067C20.4028 5.79813 21.1146 5.49432 21.8243 5.24861L21.4896 4.28172C20.7333 4.54356 19.9786 4.86597 19.2256 5.24833L19.6888 6.16067ZM17.5158 7.32211C18.2378 6.89723 18.9589 6.51178 19.6789 6.16557L19.2355 5.24343C18.4886 5.60256 17.7424 6.00156 16.9969 6.44025L17.5158 7.32211ZM16.2905 6.79808C16.5135 6.94822 16.7268 7.10742 16.9306 7.27565L17.5821 6.48671C17.3523 6.29694 17.1122 6.11782 16.862 5.94933L16.2905 6.79808ZM15.649 6.35606C15.8566 6.48954 16.0648 6.63285 16.2735 6.78607L16.8791 5.96134C16.6541 5.79611 16.4284 5.64075 16.2022 5.49534L15.649 6.35606ZM12.4625 4.79828C13.4718 5.10237 14.5319 5.61694 15.6433 6.35235L16.2079 5.49905C15.0318 4.72079 13.8816 4.15718 12.7577 3.81858L12.4625 4.79828ZM9.6728 4.33191C10.5031 4.3357 11.4317 4.48773 12.4625 4.79828L12.7577 3.81858C11.6553 3.48644 10.6273 3.31306 9.67748 3.30872L9.6728 4.33191ZM7.21484 4.80761C7.90904 4.49106 8.72442 4.32757 9.6728 4.33191L9.67748 3.30872C8.60844 3.30383 7.6421 3.48822 6.79031 3.87664L7.21484 4.80761ZM5.6317 6.08571C6.0133 5.55317 6.53702 5.12493 7.21947 4.80548L6.78568 3.87878C5.96169 4.26449 5.29425 4.79997 4.79999 5.48973L5.6317 6.08571ZM5.09532 7.77497C5.09819 7.14696 5.27681 6.58782 5.63362 6.08302L4.79807 5.49242C4.31875 6.17055 4.07595 6.93468 4.07213 7.77029L5.09532 7.77497ZM5.66731 9.7116C5.27447 9.04399 5.09246 8.40062 5.09532 7.77497L4.07213 7.77029C4.0683 8.60827 4.31472 9.43052 4.78545 10.2305L5.66731 9.7116ZM5.93125 10.1561L5.66627 9.70985L4.78649 10.2323L5.05147 10.6785L5.93125 10.1561ZM5.91796 10.7074L5.9479 10.6482L5.03482 10.1864L5.00488 10.2456L5.91796 10.7074ZM4.62306 12.9973C4.94646 12.153 5.35999 11.421 5.8606 10.7965L5.06224 10.1565C4.48865 10.8721 4.02478 11.6986 3.66755 12.6313L4.62306 12.9973ZM4.16987 15.5143C4.17385 14.6441 4.32558 13.804 4.6253 12.9913L3.66531 12.6373C3.32416 13.5623 3.1512 14.5206 3.14668 15.5096L4.16987 15.5143ZM4.71302 18.2013C4.3441 17.2855 4.16586 16.3909 4.16987 15.5143L3.14668 15.5096C3.14201 16.5317 3.35057 17.5575 3.76393 18.5836L4.71302 18.2013ZM6.47564 20.6689C5.65392 19.8961 5.0711 19.0718 4.71162 18.1978L3.76534 18.587C4.18832 19.6154 4.86328 20.5572 5.77468 21.4143L6.47564 20.6689ZM6.57172 21.6045C6.59208 21.4286 6.61234 21.2629 6.63251 21.1074L5.6178 20.9758C5.59697 21.1365 5.57614 21.3069 5.55531 21.4868L6.57172 21.6045ZM6.57294 22.0227L6.57511 21.548L5.55192 21.5433L5.54975 22.018L6.57294 22.0227ZM7.31729 25.1465C6.82404 24.3098 6.56721 23.2763 6.57294 22.0227L5.54975 22.018C5.54336 23.4147 5.83002 24.6385 6.43588 25.6661L7.31729 25.1465ZM9.38965 27.1002C8.52591 26.6453 7.83547 25.9948 7.3132 25.1397L6.43997 25.673C7.05636 26.6822 7.88237 27.4628 8.91286 28.0055L9.38965 27.1002ZM22.4302 14.5281C22.7735 14.3885 23.0979 14.2484 23.403 14.1077L22.9746 13.1785C22.6851 13.312 22.3753 13.4459 22.0449 13.5802L22.4302 14.5281ZM20.1675 10.831C20.8856 11.8997 21.4106 13.0206 21.7456 14.1945L22.7295 13.9137C22.3637 12.6318 21.7917 11.4137 21.0168 10.2604L20.1675 10.831ZM17.7111 7.9467C18.6227 8.77088 19.441 9.73039 20.1652 10.8275L21.0191 10.2638C20.2504 9.09933 19.3767 8.07319 18.3973 7.18772L17.7111 7.9467ZM21.6376 5.00465C20.3116 5.54838 19.0191 6.26379 17.7601 7.14865L18.3484 7.98577C19.5499 7.14132 20.7757 6.46393 22.0258 5.95136L21.6376 5.00465ZM24.506 4.01414C23.6578 4.21692 22.6982 4.55007 21.6302 5.00777L22.0332 5.94825C23.0659 5.50571 23.9685 5.19467 24.7439 5.00929L24.506 4.01414ZM26.7946 3.68367C26.1242 3.68061 25.3562 3.79555 24.4976 4.01622L24.7523 5.00721C25.5572 4.80035 26.2341 4.70432 26.7899 4.70686L26.7946 3.68367ZM29.3103 4.48979C28.7209 3.92078 27.8428 3.68847 26.7946 3.68367L26.7899 4.70686C27.7196 4.71112 28.2833 4.92053 28.5997 5.22595L29.3103 4.48979ZM30.1711 6.52488C30.1748 5.70126 29.8886 4.99979 29.2937 4.4744L28.6164 5.24134C28.967 5.551 29.1504 5.9593 29.1479 6.5202L30.1711 6.52488ZM28.6257 10.1508C29.6102 8.8708 30.1659 7.65641 30.1711 6.52488L29.1479 6.5202C29.1442 7.32698 28.7404 8.32346 27.8147 9.52694L28.6257 10.1508ZM24.2972 13.6506C26.1642 12.6268 27.6158 11.4638 28.6257 10.1508L27.8147 9.52694C26.9144 10.6974 25.5868 11.7765 23.8052 12.7534L24.2972 13.6506ZM23.403 14.1077C23.7128 13.9649 24.0128 13.8114 24.303 13.6474L23.7994 12.7567C23.5344 12.9065 23.2595 13.0472 22.9746 13.1785L23.403 14.1077ZM9.93832 13.7266C10.8528 12.6085 11.9047 11.5368 13.0953 10.5119L12.4278 9.73646C11.1957 10.7971 10.1015 11.911 9.14632 13.0788L9.93832 13.7266ZM5.89638 10.6451C6.78386 11.9792 7.91457 13.0475 9.28502 13.8449L9.79961 12.9605C8.56614 12.2428 7.55021 11.2838 6.74829 10.0784L5.89638 10.6451ZM5.83644 10.5543L5.89537 10.6436L6.74931 10.0799L6.69038 9.99065L5.83644 10.5543ZM9.77431 8.08582C8.30046 8.07908 7.00007 8.71705 5.88704 9.92596L6.63978 10.619C7.59404 9.58255 8.63269 9.10381 9.76963 9.10901L9.77431 8.08582ZM11.175 8.33469C10.7505 8.16737 10.2808 8.08813 9.77431 8.08582L9.76963 9.10901C10.1729 9.11085 10.5135 9.17377 10.7998 9.28661L11.175 8.33469ZM11.0651 8.35532C11.125 8.33564 11.1704 8.33891 11.1865 8.34099C11.2021 8.34301 11.2011 8.34522 11.1796 8.33652L10.7952 9.28478C10.934 9.34101 11.1528 9.40343 11.3842 9.32748L11.0651 8.35532ZM10.8027 8.69113C10.803 8.6309 10.8196 8.56675 10.8542 8.50974C10.8867 8.45614 10.9239 8.42687 10.9428 8.41443L11.5065 9.26838C11.6756 9.1567 11.8247 8.96237 11.8259 8.69581L10.8027 8.69113ZM11.07 9.04034C11.0324 9.03076 10.9518 9.00009 10.8841 8.91468C10.8152 8.82765 10.8025 8.73809 10.8027 8.69113L11.8259 8.69581C11.8265 8.56973 11.7943 8.4158 11.686 8.27915C11.579 8.14411 11.4393 8.07855 11.3227 8.04883L11.07 9.04034ZM10.3459 8.809C10.5517 8.84163 10.7627 8.90671 10.9798 9.00811L11.4128 8.08106C11.1167 7.94277 10.8142 7.84727 10.5061 7.79842L10.3459 8.809ZM9.62305 8.72264C9.86314 8.72374 10.0914 8.75048 10.3087 8.80168L10.5433 7.80575C10.247 7.73593 9.94145 7.70089 9.62773 7.69945L9.62305 8.72264ZM6.3882 10.1898C7.40314 9.18408 8.47736 8.7174 9.62305 8.72264L9.62773 7.69945C8.16264 7.69275 6.83866 8.30296 5.668 9.46297L6.3882 10.1898ZM4.99116 7.92284C4.98806 8.60158 5.19487 9.31651 5.57207 10.0583L6.48412 9.59448C6.15562 8.94848 6.01221 8.39594 6.01435 7.92752L4.99116 7.92284ZM6.46421 5.13977C5.50107 5.8211 4.99647 6.76246 4.99116 7.92284L6.01435 7.92752C6.01809 7.11002 6.35143 6.47289 7.05512 5.97509L6.46421 5.13977ZM9.97023 4.17045C8.60525 4.16421 7.42692 4.4746 6.46886 5.13652L7.05047 5.97834C7.79881 5.46132 8.75929 5.18812 9.96555 5.19364L9.97023 4.17045ZM12.8473 4.65104C11.84 4.33765 10.8801 4.17461 9.97023 4.17045L9.96555 5.19364C10.7566 5.19725 11.615 5.33921 12.5433 5.62805L12.8473 4.65104ZM15.9764 6.21615C14.9351 5.49454 13.8912 4.9694 12.8446 4.6502L12.5461 5.62889C13.4746 5.91209 14.4238 6.38503 15.3936 7.05714L15.9764 6.21615ZM16.8907 6.84164L15.9739 6.2144L15.3961 7.05889L16.313 7.68613L16.8907 6.84164ZM13.0958 10.5115C14.3087 9.4648 15.5688 8.52634 16.8762 7.6957L16.3275 6.83207C14.9768 7.69028 13.6767 8.65868 12.4273 9.73686L13.0958 10.5115ZM16.267 15.6065C18.2412 15.6155 20.1483 15.3086 21.9859 14.685L21.6571 13.7161C19.9289 14.3025 18.1346 14.5918 16.2717 14.5833L16.267 15.6065ZM13.6047 15.38C14.482 15.5269 15.3695 15.6024 16.267 15.6065L16.2717 14.5833C15.4287 14.5794 14.5961 14.5086 13.7737 14.3708L13.6047 15.38ZM11.0479 14.6897C11.8698 15.0022 12.7223 15.2322 13.6047 15.38L13.7737 14.3708C12.9564 14.234 12.1692 14.0213 11.4116 13.7333L11.0479 14.6897ZM13.7037 10.4491C12.6082 11.5346 11.6422 12.693 10.8064 13.9241L11.653 14.4988C12.4502 13.3244 13.3735 12.2167 14.4239 11.1759L13.7037 10.4491ZM17.1927 7.53312C15.9797 8.39408 14.8178 9.36518 13.7071 10.4458L14.4205 11.1792C15.4952 10.1337 16.6167 9.19667 17.7849 8.36751L17.1927 7.53312ZM20.5325 10.4832C19.7411 9.37683 18.8352 8.40064 17.815 7.5562L17.1626 8.34443C18.1128 9.1309 18.9587 10.0417 19.7002 11.0785L20.5325 10.4832ZM22.3135 14.0602C21.9455 12.7707 21.3487 11.5748 20.5261 10.4745L19.7066 11.0872C20.4568 12.0907 20.9967 13.1746 21.3295 14.3409L22.3135 14.0602ZM6.8075 19.9689C6.88669 19.6201 6.97576 19.261 7.07478 18.8916L6.08647 18.6267C5.98426 19.008 5.89198 19.3799 5.80969 19.7424L6.8075 19.9689ZM4.32622 17.6219C4.66436 18.5435 5.20275 19.4029 5.93071 20.2005L6.68648 19.5108C6.0368 18.7989 5.5738 18.0516 5.2868 17.2694L4.32622 17.6219ZM3.83176 14.9193C3.82766 15.8163 3.99461 16.718 4.32622 17.6219L5.2868 17.2694C4.99327 16.4694 4.85145 15.6884 4.85495 14.924L3.83176 14.9193ZM5.26849 10.7197C4.31433 11.9013 3.83912 13.3098 3.83176 14.9193L4.85495 14.924C4.86134 13.5272 5.26823 12.3487 6.06455 11.3626L5.26849 10.7197ZM5.38784 10.5719L5.26849 10.7197L6.06455 11.3626L6.1839 11.2148L5.38784 10.5719ZM7.63368 12.2113C7.11122 11.7405 6.6341 11.2027 6.20266 10.5967L5.36908 11.19C5.84168 11.8539 6.36811 12.4482 6.94873 12.9714L7.63368 12.2113ZM9.40593 13.4598C8.76466 13.0976 8.1719 12.6795 7.62702 12.2054L6.9554 12.9773C7.55316 13.4974 8.20248 13.9552 8.90272 14.3507L9.40593 13.4598ZM7.44626 17.7948C7.92597 16.6018 8.62748 15.4102 9.55742 14.2203L8.75123 13.5902C7.7712 14.8442 7.01756 16.1183 6.49694 17.413L7.44626 17.7948ZM7.06777 18.9155C7.18646 18.5455 7.31509 18.1654 7.4537 17.7751L6.4895 17.4327C6.34759 17.8323 6.21557 18.2223 6.09348 18.6029L7.06777 18.9155ZM14.0939 23.6961C15.5836 23.7029 16.9801 23.4296 18.2775 22.8716L17.8733 21.9317C16.7133 22.4305 15.457 22.6791 14.0986 22.6729L14.0939 23.6961ZM11.3335 23.3425C12.2602 23.5735 13.1806 23.6919 14.0939 23.6961L14.0986 22.6729C13.2713 22.6691 12.4324 22.5619 11.581 22.3497L11.3335 23.3425ZM8.60773 22.2754C9.49192 22.7536 10.4007 23.1099 11.3335 23.3425L11.581 22.3497C10.7358 22.139 9.90707 21.8149 9.09445 21.3754L8.60773 22.2754ZM8.38341 22.1622L8.62021 22.282L9.08198 21.3689L8.84517 21.2491L8.38341 22.1622ZM8.06893 21.9345L8.30546 22.1135L8.92312 21.2978L8.68659 21.1187L8.06893 21.9345ZM8.12469 19.9819C7.99839 20.4978 7.91249 20.9973 7.86829 21.4799L8.88723 21.5732C8.92631 21.1464 9.00297 20.6973 9.11854 20.2253L8.12469 19.9819ZM8.55289 18.3903C8.39035 18.9495 8.24757 19.4801 8.12469 19.9819L9.11854 20.2253C9.23753 19.7393 9.37644 19.2229 9.53543 18.6759L8.55289 18.3903ZM10.4713 14.4368C9.67214 15.6743 9.03492 16.9846 8.56028 18.367L9.52803 18.6992C9.97552 17.3959 10.5762 16.1603 11.3308 14.9919L10.4713 14.4368ZM13.5027 14.844C12.6611 14.7062 11.8499 14.5017 11.0686 14.2309L10.7335 15.1977C11.5716 15.4882 12.4397 15.7067 13.3373 15.8538L13.5027 14.844ZM16.0619 15.057C15.1985 15.0531 14.3455 14.982 13.5027 14.844L13.3373 15.8538C14.2338 16.0006 15.1405 16.076 16.0572 16.0802L16.0619 15.057ZM21.7755 14.1611C19.969 14.7668 18.0654 15.0662 16.0619 15.057L16.0572 16.0802C18.1676 16.0899 20.183 15.7742 22.1008 15.1312L21.7755 14.1611ZM22.557 15.1763L22.4411 14.5527L21.4351 14.7395L21.551 15.3631L22.557 15.1763ZM22.6495 15.9085C22.6296 15.677 22.5993 15.4367 22.559 15.1879L21.5489 15.3515C21.5856 15.5777 21.6125 15.7926 21.6301 15.9964L22.6495 15.9085ZM22.6781 16.6076C22.6792 16.3745 22.6697 16.1415 22.6495 15.9085L21.6301 15.9964C21.6476 16.1988 21.6559 16.4009 21.6549 16.603L22.6781 16.6076ZM21.4289 20.4421C22.2598 19.359 22.6714 18.0725 22.6781 16.6076L21.6549 16.603C21.6491 17.8675 21.2984 18.9313 20.6171 19.8192L21.4289 20.4421ZM18.2775 22.8716C19.5813 22.311 20.6382 21.5005 21.4328 20.4368L20.6131 19.8244C19.9351 20.732 19.027 21.4355 17.8733 21.9317L18.2775 22.8716Z" fill="#121212"/>
</g>
</g>
<defs>
<filter id="filter0_f_815_1496" x="1.84648" y="1.87871" width="30.307" height="28.2426" filterUnits="userSpaceOnUse" color-interpolation-filters="sRGB">
<feFlood flood-opacity="0" result="BackgroundImageFix"/>
<feBlend mode="normal" in="SourceGraphic" in2="BackgroundImageFix" result="shape"/>
<feGaussianBlur stdDeviation="0.65" result="effect1_foregroundBlur_815_1496"/>
</filter>
<clipPath id="clip0_815_1496">
<rect width="32" height="32" fill="white"/>
</clipPath>
</defs>
</svg>
