<svg width="246" height="112" viewBox="0 0 246 112" fill="none" xmlns="http://www.w3.org/2000/svg">
<g filter="url(#filter0_f_445_9)">
<path d="M8.9986 102.698C7.92671 102.698 6.9888 102.333 6.18489 101.603C5.44796 100.872 5.0795 99.9425 5.0795 98.8136C5.0795 97.8176 5.44796 96.9212 6.18489 96.1244L36.6332 60.4664C38.3081 58.6735 39.6479 56.6814 40.6528 54.4902C41.6577 52.2325 42.1602 50.1408 42.1602 48.2151C42.1602 45.0942 41.5237 42.3385 40.2509 39.9481C39.045 37.5576 37.3032 35.6983 35.0254 34.3703C32.8146 32.9758 30.2689 32.2786 27.3882 32.2786C24.5745 32.2786 21.9953 33.009 19.6505 34.4699C17.3727 35.8643 15.5639 37.7568 14.2241 40.1473C12.9512 42.5378 12.3148 45.227 12.3148 48.2151C12.3148 49.2776 11.9463 50.174 11.2094 50.9044C10.4724 51.6349 9.53454 52.0001 8.39566 52.0001C7.32377 52.0001 6.38587 51.6349 5.58195 50.9044C4.84502 50.174 4.47656 49.2776 4.47656 48.2151C4.47656 43.7662 5.48146 39.7821 7.49125 36.2627C9.50104 32.7434 12.2143 29.9545 15.6309 27.8961C19.1146 25.8376 23.0336 24.8083 27.3882 24.8083C31.7428 24.8083 35.5949 25.8044 38.9445 27.7965C42.3612 29.7885 45.0074 32.5442 46.8832 36.0635C48.826 39.5828 49.7974 43.6334 49.7974 48.2151C49.7974 50.4064 49.4289 52.4981 48.692 54.4902C48.0221 56.4822 47.0842 58.4079 45.8783 60.2671C44.6724 62.06 43.3661 63.7533 41.9592 65.3469L16.2339 94.9291H47.6871C48.759 94.9291 49.6634 95.3275 50.4003 96.1244C51.2043 96.9212 51.6062 97.8176 51.6062 98.8136C51.6062 99.9425 51.2043 100.872 50.4003 101.603C49.6634 102.333 48.759 102.698 47.6871 102.698H8.9986Z" fill="#121212"/>
<path d="M8.9986 102.698C7.92671 102.698 6.9888 102.333 6.18489 101.603C5.44796 100.872 5.0795 99.9425 5.0795 98.8136C5.0795 97.8176 5.44796 96.9212 6.18489 96.1244L36.6332 60.4664C38.3081 58.6735 39.6479 56.6814 40.6528 54.4902C41.6577 52.2325 42.1602 50.1408 42.1602 48.2151C42.1602 45.0942 41.5237 42.3385 40.2509 39.9481C39.045 37.5576 37.3032 35.6983 35.0254 34.3703C32.8146 32.9758 30.2689 32.2786 27.3882 32.2786C24.5745 32.2786 21.9953 33.009 19.6505 34.4699C17.3727 35.8643 15.5639 37.7568 14.2241 40.1473C12.9512 42.5378 12.3148 45.227 12.3148 48.2151C12.3148 49.2776 11.9463 50.174 11.2094 50.9044C10.4724 51.6349 9.53454 52.0001 8.39566 52.0001C7.32377 52.0001 6.38587 51.6349 5.58195 50.9044C4.84502 50.174 4.47656 49.2776 4.47656 48.2151C4.47656 43.7662 5.48146 39.7821 7.49125 36.2627C9.50104 32.7434 12.2143 29.9545 15.6309 27.8961C19.1146 25.8376 23.0336 24.8083 27.3882 24.8083C31.7428 24.8083 35.5949 25.8044 38.9445 27.7965C42.3612 29.7885 45.0074 32.5442 46.8832 36.0635C48.826 39.5828 49.7974 43.6334 49.7974 48.2151C49.7974 50.4064 49.4289 52.4981 48.692 54.4902C48.0221 56.4822 47.0842 58.4079 45.8783 60.2671C44.6724 62.06 43.3661 63.7533 41.9592 65.3469L16.2339 94.9291H47.6871C48.759 94.9291 49.6634 95.3275 50.4003 96.1244C51.2043 96.9212 51.6062 97.8176 51.6062 98.8136C51.6062 99.9425 51.2043 100.872 50.4003 101.603C49.6634 102.333 48.759 102.698 47.6871 102.698H8.9986Z" stroke="#121212"/>
</g>
<g filter="url(#filter1_f_445_9)">
<path d="M146.137 102.815L145.458 97.9577C144.756 100.07 143.624 101.689 142.062 102.815C140.726 103.756 139.209 104.227 137.511 104.227C134.749 104.227 132.508 102.907 130.787 100.266C129.452 98.2218 128.784 94.9378 128.784 90.4137V70.8475C128.784 69.6763 128.501 68.8266 127.935 68.2984C127.505 67.908 126.463 67.5635 124.811 67.2649V64.7158C127.505 64.6928 130.289 64.2221 133.164 63.3035V90.1725C133.164 96.8094 134.806 100.128 138.088 100.128C139.447 100.128 140.76 99.4159 142.028 97.9921C143.386 96.4535 144.416 94.3177 145.118 91.5849V70.8475C145.118 69.5614 144.835 68.6428 144.269 68.0917C143.861 67.6783 142.911 67.4027 141.416 67.2649V64.7158C144.201 64.6928 146.918 64.2221 149.567 63.3035V94.9952C149.567 96.9242 149.793 98.2562 150.246 98.9911C150.698 99.726 151.604 100.151 152.962 100.266V102.815H146.137Z" fill="#121212"/>
<path d="M146.137 102.815L145.458 97.9577C144.756 100.07 143.624 101.689 142.062 102.815C140.726 103.756 139.209 104.227 137.511 104.227C134.749 104.227 132.508 102.907 130.787 100.266C129.452 98.2218 128.784 94.9378 128.784 90.4137V70.8475C128.784 69.6763 128.501 68.8266 127.935 68.2984C127.505 67.908 126.463 67.5635 124.811 67.2649V64.7158C127.505 64.6928 130.289 64.2221 133.164 63.3035V90.1725C133.164 96.8094 134.806 100.128 138.088 100.128C139.447 100.128 140.76 99.4159 142.028 97.9921C143.386 96.4535 144.416 94.3177 145.118 91.5849V70.8475C145.118 69.5614 144.835 68.6428 144.269 68.0917C143.861 67.6783 142.911 67.4027 141.416 67.2649V64.7158C144.201 64.6928 146.918 64.2221 149.567 63.3035V94.9952C149.567 96.9242 149.793 98.2562 150.246 98.9911C150.698 99.726 151.604 100.151 152.962 100.266V102.815H146.137Z" stroke="#121212"/>
</g>
<g filter="url(#filter2_f_445_9)">
<path d="M166.052 57.5031C166.306 59.7515 167.34 61.4481 169.156 62.5928C170.972 63.7375 173.268 64.6593 176.045 65.3583C178.897 65.9647 181.878 66.5986 184.988 67.26C188.173 67.8288 191.182 68.7125 194.015 69.9112C196.84 71.0265 199.216 72.6562 201.144 74.8002C203.156 76.9348 204.373 79.8758 204.795 83.6231C205.264 87.7868 204.571 91.3647 202.715 94.3568C200.943 97.3394 198.467 99.6846 195.286 101.392C192.179 103.007 188.877 104.012 185.379 104.406C182.048 104.782 178.879 104.717 175.87 104.213C172.936 103.616 170.362 102.852 168.148 101.921L166.877 105.226L162.13 105.761C161.264 102.57 160.213 99.2307 158.977 95.7438C157.824 92.2474 156.523 88.9364 155.075 85.8107L159.056 84.0971C162.265 88.6267 165.44 92.106 168.581 94.535C171.796 96.8713 174.797 98.4306 177.584 99.2129C180.454 99.9858 182.93 100.255 185.012 100.02C187.843 99.7012 190.22 98.7165 192.142 97.0663C194.055 95.3327 194.852 93.0503 194.533 90.219C194.261 87.804 193.17 85.9872 191.262 84.7687C189.437 83.5407 187.099 82.6235 184.248 82.0172C181.47 81.3182 178.485 80.6427 175.291 79.9906C172.097 79.3385 169.047 78.4595 166.139 77.3535C163.315 76.2381 160.897 74.6132 158.885 72.4785C156.864 70.2607 155.647 67.3197 155.234 63.6556C154.784 59.6584 155.454 56.2518 157.245 53.4357C159.119 50.6102 161.693 48.3805 164.967 46.7467C168.24 45.1128 171.834 44.0753 175.748 43.6343C178.829 43.287 181.531 43.3198 183.855 43.7327C186.178 44.1455 188.104 44.7718 189.632 45.6115L190.503 43.2364L195.25 42.7015C196.013 45.7357 196.86 48.7606 197.79 51.776C198.804 54.7821 199.886 57.6539 201.038 60.3914L197.057 62.105C194.051 57.1309 190.852 53.4434 187.461 51.0426C184.145 48.5491 180.321 47.5463 175.991 48.0343C172.41 48.4378 169.793 49.5339 168.139 51.3226C166.485 53.1113 165.79 55.1714 166.052 57.5031Z" fill="#121212"/>
<path d="M166.052 57.5031C166.306 59.7515 167.34 61.4481 169.156 62.5928C170.972 63.7375 173.268 64.6593 176.045 65.3583C178.897 65.9647 181.878 66.5986 184.988 67.26C188.173 67.8288 191.182 68.7125 194.015 69.9112C196.84 71.0265 199.216 72.6562 201.144 74.8002C203.156 76.9348 204.373 79.8758 204.795 83.6231C205.264 87.7868 204.571 91.3647 202.715 94.3568C200.943 97.3394 198.467 99.6846 195.286 101.392C192.179 103.007 188.877 104.012 185.379 104.406C182.048 104.782 178.879 104.717 175.87 104.213C172.936 103.616 170.362 102.852 168.148 101.921L166.877 105.226L162.13 105.761C161.264 102.57 160.213 99.2307 158.977 95.7438C157.824 92.2474 156.523 88.9364 155.075 85.8107L159.056 84.0971C162.265 88.6267 165.44 92.106 168.581 94.535C171.796 96.8713 174.797 98.4306 177.584 99.2129C180.454 99.9858 182.93 100.255 185.012 100.02C187.843 99.7012 190.22 98.7165 192.142 97.0663C194.055 95.3327 194.852 93.0503 194.533 90.219C194.261 87.804 193.17 85.9872 191.262 84.7687C189.437 83.5407 187.099 82.6235 184.248 82.0172C181.47 81.3182 178.485 80.6427 175.291 79.9906C172.097 79.3385 169.047 78.4595 166.139 77.3535C163.315 76.2381 160.897 74.6132 158.885 72.4785C156.864 70.2607 155.647 67.3197 155.234 63.6556C154.784 59.6584 155.454 56.2518 157.245 53.4357C159.119 50.6102 161.693 48.3805 164.967 46.7467C168.24 45.1128 171.834 44.0753 175.748 43.6343C178.829 43.287 181.531 43.3198 183.855 43.7327C186.178 44.1455 188.104 44.7718 189.632 45.6115L190.503 43.2364L195.25 42.7015C196.013 45.7357 196.86 48.7606 197.79 51.776C198.804 54.7821 199.886 57.6539 201.038 60.3914L197.057 62.105C194.051 57.1309 190.852 53.4434 187.461 51.0426C184.145 48.5491 180.321 47.5463 175.991 48.0343C172.41 48.4378 169.793 49.5339 168.139 51.3226C166.485 53.1113 165.79 55.1714 166.052 57.5031Z" stroke="#121212"/>
</g>
<g filter="url(#filter3_f_445_9)">
<path d="M233.198 86.563L234.79 89.7608C232.313 92.5144 229.792 95.0905 227.227 97.4888C224.662 99.7983 222.274 101.664 220.062 103.085C217.939 104.506 216.17 105.217 214.755 105.217C212.101 105.217 210.067 104.417 208.652 102.819C207.237 101.22 206.706 99.0433 207.06 96.2896L214.357 50.5876L213.694 50.0546L204.539 49.6549L204.141 48.9887L204.671 45.1247L215.286 43.3925C215.64 40.8165 215.949 38.3293 216.215 35.931C216.568 33.4438 216.834 31.4007 217.011 29.8018C217.276 28.2029 217.409 27.4035 217.409 27.4035L229.35 22.74L230.146 24.3389C230.146 24.3389 229.881 25.2272 229.35 27.0037C228.819 28.7803 228.112 31.1787 227.227 34.1988C226.431 37.1301 225.635 40.3279 224.839 43.7922L241.026 43.659L241.557 44.0587L240.495 49.3884L224.839 49.2552L223.379 50.0546L215.286 90.96C214.844 94.0689 215.861 95.6234 218.337 95.6234C219.576 95.6234 221.168 94.9572 223.114 93.6248C225.148 92.2035 227.935 89.8052 231.473 86.4297L233.198 86.563Z" fill="#121212"/>
<path d="M233.198 86.563L234.79 89.7608C232.313 92.5144 229.792 95.0905 227.227 97.4888C224.662 99.7983 222.274 101.664 220.062 103.085C217.939 104.506 216.17 105.217 214.755 105.217C212.101 105.217 210.067 104.417 208.652 102.819C207.237 101.22 206.706 99.0433 207.06 96.2896L214.357 50.5876L213.694 50.0546L204.539 49.6549L204.141 48.9887L204.671 45.1247L215.286 43.3925C215.64 40.8165 215.949 38.3293 216.215 35.931C216.568 33.4438 216.834 31.4007 217.011 29.8018C217.276 28.2029 217.409 27.4035 217.409 27.4035L229.35 22.74L230.146 24.3389C230.146 24.3389 229.881 25.2272 229.35 27.0037C228.819 28.7803 228.112 31.1787 227.227 34.1988C226.431 37.1301 225.635 40.3279 224.839 43.7922L241.026 43.659L241.557 44.0587L240.495 49.3884L224.839 49.2552L223.379 50.0546L215.286 90.96C214.844 94.0689 215.861 95.6234 218.337 95.6234C219.576 95.6234 221.168 94.9572 223.114 93.6248C225.148 92.2035 227.935 89.8052 231.473 86.4297L233.198 86.563Z" stroke="#121212"/>
</g>
<g filter="url(#filter4_f_445_9)">
<path fill-rule="evenodd" clip-rule="evenodd" d="M74.5382 105.159C78.6348 107.273 83.2391 108.342 88.3509 108.365C92.2057 108.383 96.231 107.773 100.427 106.535C104.622 105.381 108.82 103.598 113.022 101.187C118.819 97.8614 124.117 93.8631 128.915 89.1922C130.437 87.71 131.857 86.2234 133.176 84.7321V82.0854V81.6124C132.863 81.963 132.542 82.3157 132.213 82.6707C129.434 85.6748 126.278 88.6354 122.745 91.5523C119.296 94.3858 115.597 96.9249 111.648 99.1695C107.531 101.497 103.584 103.239 99.8081 104.395C96.0313 105.635 92.5926 106.247 89.492 106.233C83.626 106.206 79.0257 104.258 75.6913 100.388C72.3566 96.6014 70.7472 91.1888 70.8632 84.15C74.2906 86.0093 77.8459 87.3664 81.5293 88.2213C85.2965 89.0765 89.0237 89.5126 92.711 89.5294C97.6552 89.552 102.435 88.8616 107.051 87.458C111.75 85.9711 115.908 83.895 119.524 81.2299C123.223 78.5651 126.129 75.3102 128.242 71.4649C130.438 67.62 131.547 63.3093 131.569 58.5327C131.572 57.8623 131.534 57.1917 131.453 56.5209C131.456 55.8505 131.417 55.2218 131.336 54.6348C131.256 53.7964 131.134 52.9997 130.97 52.2448C130.806 51.406 130.642 50.6091 130.478 49.8541C133.332 48.7778 136.145 47.5336 138.917 46.1216C144.461 43.2139 149.127 40.0089 152.914 36.5065C156.701 32.9203 159.525 29.3716 161.385 25.8604C163.329 22.2658 164.307 18.9601 164.321 15.9433C164.337 12.5075 163.051 9.69421 160.463 7.50352C157.959 5.22941 154.11 4.08047 148.914 4.05672C146.149 4.04407 142.963 4.40661 139.356 5.14434C135.833 5.79865 131.889 6.95385 127.524 8.60993C124.418 9.68516 121.311 11.0118 118.203 12.5898C115.096 14.084 111.988 15.7459 108.879 17.5753C107.96 16.8169 107 16.1002 105.997 15.4252C105.079 14.7506 104.16 14.1178 103.24 13.527C98.3946 10.3204 93.7121 8.03631 89.193 6.67481C84.6739 5.31331 80.5289 4.62394 76.7578 4.6067C72.484 4.58715 68.7095 5.32411 65.4344 6.81758C62.2431 8.31143 59.7197 10.353 57.8642 12.9424C56.0929 15.4484 55.2002 18.2517 55.186 21.3523C55.1718 24.4529 56.0794 27.5578 57.9089 30.6668L59.0316 32.5575L58.9047 32.8083C56.6291 35.6472 54.7703 38.9489 53.3285 42.7134C51.9708 46.3945 51.283 50.2043 51.265 54.143C51.2466 58.1654 52.066 62.2335 53.7232 66.3474C55.3808 70.3775 58.0454 74.1189 61.7169 77.5716C61.63 78.2416 61.543 78.9535 61.4557 79.7073L61.4465 81.7186C61.4209 87.3332 62.5722 92.1152 64.9006 96.0645C67.3128 100.014 70.5254 103.046 74.5382 105.159ZM134.014 46.2249C132.754 46.8058 131.411 47.3862 129.983 47.9663C128.499 42.7638 126.175 37.8088 123.012 33.1015C119.85 28.3103 116.265 24.1038 112.259 20.482C117.472 16.8185 122.807 13.8679 128.264 11.6302C132.714 9.72309 136.659 8.35839 140.099 7.5361C143.623 6.63039 146.684 6.18348 149.281 6.19536C153.471 6.21452 156.526 7.15031 158.445 9.00273C160.448 10.7717 161.443 13.1227 161.43 16.0558C161.411 20.162 159.378 24.8456 155.332 30.1067C151.285 35.3677 145.397 40.1175 137.668 44.3561C136.492 45.0211 135.274 45.6441 134.014 46.2249ZM89.8346 31.3156C84.7024 35.7337 80.1559 40.3639 76.1951 45.2063C70.6788 41.9966 66.1312 37.7019 62.5523 32.3222L62.3027 31.9439C66.6821 27.1872 71.6373 24.8215 77.1681 24.8468C79.0955 24.8556 80.8121 25.1568 82.3178 25.7503C82.736 25.9198 83.0711 25.9632 83.3228 25.8806C83.575 25.7141 83.7017 25.5052 83.7028 25.2538C83.7043 24.9186 83.5377 24.7083 83.2029 24.623C82.1158 24.1152 81.0279 23.775 79.9393 23.6024C78.851 23.3461 77.7203 23.2152 76.5471 23.2098C71.0162 23.1845 65.9358 25.4659 61.3057 30.0538C59.8107 27.1139 59.0687 24.4288 59.0798 21.9986C59.099 17.8086 60.8741 14.4646 64.4053 11.9667C68.0202 9.46917 72.5511 8.23285 77.9982 8.25776C81.6016 8.27424 85.4535 8.92037 89.554 10.1962C93.7383 11.4723 97.9607 13.5867 102.221 16.5392L106.106 19.1968C100.475 22.7745 95.0509 26.8141 89.8346 31.3156ZM128.221 48.5868C120.667 51.1501 112.826 52.4132 104.697 52.376C101.01 52.3592 97.3658 52.0492 93.765 51.4461C90.1643 50.843 86.6908 49.9053 83.3445 48.633C86.8037 43.5369 90.8063 38.7365 95.3522 34.232C99.9819 29.7279 104.819 25.6856 109.864 22.1051C114.038 25.5601 117.749 29.5577 120.996 34.0979C124.328 38.5546 126.736 43.3843 128.221 48.5868ZM63.6467 67.9012C63.2204 69.4915 62.8362 71.0401 62.4941 72.547C59.5756 69.3492 57.4542 65.9455 56.1299 62.3359C54.8056 58.7264 54.1515 55.1618 54.1676 51.6422C54.1967 45.2733 56.0654 39.7928 59.7737 35.2007L60.2794 34.5745C62.1945 37.2649 64.3205 39.663 66.6573 41.7687C69.078 43.8748 71.7093 45.7305 74.5512 47.3358C70.505 52.513 67.4223 57.7365 65.3032 63.0064C64.7089 64.6797 64.1568 66.3113 63.6467 67.9012ZM112.349 83.334C107.143 85.5729 101.523 86.6785 95.4896 86.6509C91.8024 86.6341 88.0754 86.1561 84.3085 85.2171C80.5417 84.278 76.861 82.8366 73.2664 80.8927L72.2631 80.3853L71.261 79.6265C71.4374 77.6998 71.7818 75.6901 72.2942 73.5974C72.8065 71.5047 73.4033 69.2867 74.0844 66.9433C76.0379 61.2537 78.6604 55.8605 81.952 50.7636C85.3825 51.9525 88.94 52.8487 92.6245 53.4522C96.3091 54.0556 100.037 54.366 103.808 54.3832C112.523 54.4231 120.825 53.1202 128.715 50.4746L129.206 53.1166C129.369 54.123 129.49 55.0873 129.57 56.0095C129.649 56.9316 129.687 57.8536 129.683 58.7755C129.656 64.5577 128.041 69.5365 124.838 73.712C121.718 77.8878 117.555 81.0952 112.349 83.334Z" fill="#121212"/>
<path d="M88.3509 108.365L88.3486 108.865L88.3486 108.865L88.3509 108.365ZM74.5382 105.159L74.3052 105.602L74.3089 105.604L74.5382 105.159ZM100.427 106.535L100.294 106.052L100.285 106.055L100.427 106.535ZM113.022 101.187L112.773 100.753L112.773 100.753L113.022 101.187ZM128.915 89.1922L129.264 89.5504L129.264 89.5504L128.915 89.1922ZM133.176 84.7321L133.55 85.0633L133.676 84.9215V84.7321H133.176ZM133.176 81.6124H133.676V80.3001L132.802 81.2797L133.176 81.6124ZM132.213 82.6707L131.847 82.3307L131.846 82.3311L132.213 82.6707ZM122.745 91.5523L123.062 91.9386L123.063 91.9379L122.745 91.5523ZM111.648 99.1695L111.894 99.6047L111.895 99.6042L111.648 99.1695ZM99.8081 104.395L99.6617 103.917L99.6521 103.92L99.8081 104.395ZM89.492 106.233L89.4897 106.733L89.4897 106.733L89.492 106.233ZM75.6913 100.388L76.0702 100.061L76.0666 100.057L75.6913 100.388ZM70.8632 84.15L71.1016 83.7105L70.3768 83.3173L70.3632 84.1417L70.8632 84.15ZM81.5293 88.2213L81.4163 88.7083L81.4186 88.7088L81.5293 88.2213ZM92.711 89.5294L92.7132 89.0294L92.7132 89.0294L92.711 89.5294ZM107.051 87.458L107.196 87.9364L107.201 87.9347L107.051 87.458ZM119.524 81.2299L119.231 80.8242L119.227 80.8274L119.524 81.2299ZM128.242 71.4649L127.808 71.2169L127.804 71.2241L128.242 71.4649ZM131.569 58.5327L131.069 58.5304L131.069 58.5304L131.569 58.5327ZM131.453 56.5209L130.953 56.5186L130.953 56.5497L130.956 56.5806L131.453 56.5209ZM131.336 54.6348L130.838 54.6823L130.839 54.6928L130.84 54.7032L131.336 54.6348ZM130.97 52.2448L130.479 52.3406L130.481 52.351L130.97 52.2448ZM130.478 49.8541L130.301 49.3863L129.897 49.5386L129.989 49.9604L130.478 49.8541ZM138.917 46.1216L139.144 46.5672L139.149 46.5644L138.917 46.1216ZM152.914 36.5065L153.253 36.8736L153.258 36.8695L152.914 36.5065ZM161.385 25.8604L160.945 25.6226L160.943 25.6264L161.385 25.8604ZM164.321 15.9433L163.821 15.941L163.821 15.941L164.321 15.9433ZM160.463 7.50352L160.127 7.87363L160.133 7.8795L160.14 7.88514L160.463 7.50352ZM148.914 4.05672L148.912 4.55671L148.914 4.05672ZM139.356 5.14434L139.447 5.63601L139.456 5.6342L139.356 5.14434ZM127.524 8.60993L127.687 9.08241L127.694 9.08002L127.701 9.07742L127.524 8.60993ZM118.203 12.5898L118.42 13.0405L118.43 13.0356L118.203 12.5898ZM108.879 17.5753L108.56 17.9608L108.83 18.1839L109.132 18.0062L108.879 17.5753ZM105.997 15.4252L105.701 15.8282L105.71 15.8342L105.718 15.8399L105.997 15.4252ZM103.24 13.527L102.965 13.944L102.97 13.9476L103.24 13.527ZM89.193 6.67481L89.3373 6.19606L89.3373 6.19606L89.193 6.67481ZM76.7578 4.6067L76.7601 4.1067L76.7578 4.6067ZM65.4344 6.81758L65.227 6.36262L65.2225 6.36473L65.4344 6.81758ZM57.8642 12.9424L57.4578 12.6512L57.4559 12.6538L57.8642 12.9424ZM55.186 21.3523L54.686 21.35L54.686 21.35L55.186 21.3523ZM57.9089 30.6668L57.4779 30.9204L57.479 30.9221L57.9089 30.6668ZM59.0316 32.5575L59.4777 32.7831L59.6016 32.5382L59.4615 32.3022L59.0316 32.5575ZM58.9047 32.8083L59.2948 33.121L59.3274 33.0804L59.3509 33.034L58.9047 32.8083ZM53.3285 42.7134L52.8615 42.5345L52.8594 42.5404L53.3285 42.7134ZM51.265 54.143L51.7649 54.1452L51.265 54.143ZM53.7232 66.3474L53.2594 66.5343L53.2608 66.5376L53.7232 66.3474ZM61.7169 77.5716L62.2128 77.6359L62.2456 77.3824L62.0594 77.2073L61.7169 77.5716ZM61.4557 79.7073L60.959 79.6498L60.9559 79.6774L60.9557 79.7051L61.4557 79.7073ZM61.4465 81.7186L61.9465 81.7208L61.9465 81.7208L61.4465 81.7186ZM64.9006 96.0645L64.4699 96.3185L64.4739 96.3251L64.9006 96.0645ZM129.983 47.9663L129.503 48.1035L129.656 48.6393L130.172 48.4295L129.983 47.9663ZM134.014 46.2249L133.805 45.7709L133.805 45.7709L134.014 46.2249ZM123.012 33.1015L122.595 33.3769L122.597 33.3803L123.012 33.1015ZM112.259 20.482L111.972 20.0729L111.46 20.4329L111.924 20.8528L112.259 20.482ZM128.264 11.6302L128.454 12.0929L128.461 12.0898L128.264 11.6302ZM140.099 7.5361L140.215 8.02247L140.223 8.02036L140.099 7.5361ZM149.281 6.19536L149.279 6.69535L149.279 6.69535L149.281 6.19536ZM158.445 9.00273L158.098 9.36247L158.106 9.37017L158.114 9.37751L158.445 9.00273ZM161.43 16.0558L160.93 16.0535L160.93 16.0535L161.43 16.0558ZM137.668 44.3561L137.427 43.9176L137.422 43.9208L137.668 44.3561ZM76.1951 45.2063L75.9436 45.6385L76.3122 45.8529L76.5821 45.5229L76.1951 45.2063ZM89.8346 31.3156L90.1608 31.6945L90.1612 31.6941L89.8346 31.3156ZM62.5523 32.3222L62.135 32.5976L62.136 32.5991L62.5523 32.3222ZM62.3027 31.9439L61.9348 31.6053L61.6699 31.893L61.8854 32.2194L62.3027 31.9439ZM77.1681 24.8468L77.1704 24.3468L77.1704 24.3468L77.1681 24.8468ZM82.3178 25.7503L82.5056 25.2869L82.5012 25.2851L82.3178 25.7503ZM83.3228 25.8806L83.4788 26.3556L83.5424 26.3348L83.5983 26.2979L83.3228 25.8806ZM83.7028 25.2538L84.2028 25.2561L84.2028 25.2561L83.7028 25.2538ZM83.2029 24.623L82.9913 25.076L83.0339 25.0959L83.0794 25.1075L83.2029 24.623ZM79.9393 23.6024L79.8246 24.0891L79.8427 24.0934L79.861 24.0963L79.9393 23.6024ZM76.5471 23.2098L76.5448 23.7098L76.5448 23.7098L76.5471 23.2098ZM61.3057 30.0538L60.86 30.2805L61.1707 30.8915L61.6576 30.409L61.3057 30.0538ZM59.0798 21.9986L59.5798 22.0009L59.5798 22.0009L59.0798 21.9986ZM64.4053 11.9667L64.121 11.5553L64.1165 11.5585L64.4053 11.9667ZM77.9982 8.25776L77.9959 8.75776L77.9959 8.75776L77.9982 8.25776ZM89.554 10.1962L89.4055 10.6736L89.4082 10.6744L89.554 10.1962ZM102.221 16.5392L101.936 16.9502L101.939 16.9519L102.221 16.5392ZM106.106 19.1968L106.374 19.6188L107.014 19.2122L106.388 18.7841L106.106 19.1968ZM104.697 52.376L104.695 52.876L104.695 52.876L104.697 52.376ZM128.221 48.5868L128.381 49.0603L128.832 48.9073L128.702 48.4496L128.221 48.5868ZM83.3445 48.633L82.9308 48.3522L82.5756 48.8755L83.1668 49.1003L83.3445 48.633ZM95.3522 34.232L95.0035 33.8736L95.0002 33.8768L95.3522 34.232ZM109.864 22.1051L110.182 21.72L109.887 21.4754L109.574 21.6974L109.864 22.1051ZM120.996 34.0979L120.59 34.3888L120.596 34.3972L120.996 34.0979ZM62.4941 72.547L62.1248 72.884L62.7698 73.5908L62.9817 72.6577L62.4941 72.547ZM63.6467 67.9012L63.1706 67.7485L63.1669 67.7601L63.1637 67.7718L63.6467 67.9012ZM56.1299 62.3359L55.6605 62.5081L55.6605 62.5081L56.1299 62.3359ZM54.1676 51.6422L54.6676 51.6444L54.1676 51.6422ZM59.7737 35.2007L59.3847 34.8865L59.3847 34.8865L59.7737 35.2007ZM60.2794 34.5745L60.6867 34.2845L60.3045 33.7475L59.8904 34.2603L60.2794 34.5745ZM66.6573 41.7687L66.3226 42.1402L66.3291 42.1459L66.6573 41.7687ZM74.5512 47.3358L74.9452 47.6436L75.3028 47.186L74.7971 46.9004L74.5512 47.3358ZM65.3032 63.0064L64.8393 62.8198L64.8355 62.8294L64.832 62.839L65.3032 63.0064ZM95.4896 86.6509L95.4873 87.1509L95.4873 87.1509L95.4896 86.6509ZM84.3085 85.2171L84.4295 84.7319L84.4295 84.7319L84.3085 85.2171ZM73.2664 80.8927L73.5044 80.4527L73.4921 80.4465L73.2664 80.8927ZM72.2631 80.3853L71.9613 80.7839L71.9972 80.8111L72.0375 80.8315L72.2631 80.3853ZM71.261 79.6265L70.763 79.5809L70.7377 79.8574L70.9591 80.0251L71.261 79.6265ZM72.2942 73.5974L72.7798 73.7163L72.7798 73.7163L72.2942 73.5974ZM74.0844 66.9433L73.6115 66.781L73.6076 66.7923L73.6043 66.8038L74.0844 66.9433ZM81.952 50.7636L82.1158 50.2912L81.7449 50.1626L81.532 50.4923L81.952 50.7636ZM92.6245 53.4522L92.7053 52.9587L92.7053 52.9587L92.6245 53.4522ZM103.808 54.3832L103.81 53.8832L103.81 53.8832L103.808 54.3832ZM128.715 50.4746L129.207 50.3833L129.102 49.8176L128.556 50.0005L128.715 50.4746ZM129.206 53.1166L129.699 53.0366L129.697 53.0253L129.206 53.1166ZM129.57 56.0095L130.068 55.9665L130.068 55.9665L129.57 56.0095ZM129.683 58.7755L130.183 58.7777L130.183 58.7777L129.683 58.7755ZM124.838 73.712L124.441 73.4076L124.437 73.4127L124.838 73.712ZM88.3532 107.865C83.3116 107.842 78.7865 106.789 74.7675 104.715L74.3089 105.604C78.4831 107.757 83.1665 108.841 88.3486 108.865L88.3532 107.865ZM100.285 106.055C96.13 107.281 92.1533 107.882 88.3532 107.865L88.3486 108.865C92.2582 108.883 96.332 108.264 100.568 107.014L100.285 106.055ZM112.773 100.753C108.604 103.146 104.445 104.911 100.294 106.053L100.559 107.017C104.8 105.85 109.037 104.05 113.27 101.621L112.773 100.753ZM128.566 88.8339C123.798 93.4757 118.534 97.4486 112.773 100.753L113.27 101.621C119.104 98.2742 124.436 94.2506 129.264 89.5504L128.566 88.8339ZM132.801 84.401C131.491 85.8822 130.08 87.3599 128.566 88.8339L129.264 89.5504C130.794 88.0601 132.223 86.5645 133.55 85.0633L132.801 84.401ZM133.676 84.7321V82.0854H132.676V84.7321H133.676ZM133.676 82.0854V81.6124H132.676V82.0854H133.676ZM132.58 83.0107C132.911 82.6534 133.234 82.2982 133.549 81.9451L132.802 81.2797C132.492 81.6277 132.174 81.9781 131.847 82.3307L132.58 83.0107ZM123.063 91.9379C126.611 89.0084 129.784 86.0326 132.58 83.0102L131.846 82.3311C129.084 85.3171 125.944 88.2624 122.426 91.1667L123.063 91.9379ZM111.895 99.6042C115.868 97.3457 119.591 94.7906 123.062 91.9386L122.427 91.166C119.001 93.9811 115.326 96.504 111.401 98.7348L111.895 99.6042ZM99.9544 104.873C103.772 103.705 107.752 101.947 111.894 99.6047L111.402 98.7342C107.311 101.047 103.397 102.773 99.6617 103.917L99.9544 104.873ZM89.4897 106.733C92.6568 106.748 96.1498 106.122 99.964 104.87L99.6521 103.92C95.9128 105.147 92.5284 105.747 89.4943 105.733L89.4897 106.733ZM75.3125 100.714C78.7559 104.711 83.5028 106.706 89.4897 106.733L89.4943 105.733C83.7491 105.707 79.2956 103.805 76.0701 100.061L75.3125 100.714ZM70.3632 84.1417C70.246 91.2558 71.8714 96.8071 75.3161 100.718L76.0666 100.057C72.8417 96.3958 71.2483 91.1219 71.3631 84.1582L70.3632 84.1417ZM81.6424 87.7342C78.0041 86.8898 74.4907 85.5491 71.1016 83.7105L70.6247 84.5895C74.0904 86.4695 77.6878 87.843 81.4163 88.7083L81.6424 87.7342ZM92.7132 89.0294C89.0642 89.0127 85.3733 88.5812 81.64 87.7337L81.4186 88.7088C85.2197 89.5718 88.9833 90.0124 92.7087 90.0294L92.7132 89.0294ZM106.905 86.9797C102.339 88.3683 97.6087 89.0518 92.7132 89.0294L92.7087 90.0294C97.7017 90.0523 102.531 89.3549 107.196 87.9364L106.905 86.9797ZM119.227 80.8274C115.66 83.457 111.552 85.5093 106.9 86.9813L107.201 87.9347C111.948 86.4328 116.156 84.3331 119.82 81.6324L119.227 80.8274ZM127.804 71.2241C125.728 75.0017 122.873 78.2011 119.231 80.8242L119.816 81.6356C123.573 78.9292 126.53 75.6186 128.68 71.7057L127.804 71.2241ZM131.069 58.5304C131.048 63.2278 129.958 67.4527 127.808 71.2169L128.676 71.7129C130.919 67.7873 132.047 63.3908 132.069 58.535L131.069 58.5304ZM130.956 56.5806C131.035 57.231 131.072 57.8809 131.069 58.5304L132.069 58.535C132.072 57.8437 132.032 57.1523 131.949 56.4611L130.956 56.5806ZM130.84 54.7032C130.918 55.264 130.956 55.8688 130.953 56.5186L131.953 56.5232C131.956 55.8321 131.916 55.1796 131.831 54.5664L130.84 54.7032ZM130.481 52.351C130.641 53.0849 130.76 53.8619 130.838 54.6823L131.833 54.5873C131.752 53.7309 131.627 52.9145 131.458 52.1385L130.481 52.351ZM129.989 49.9604C130.152 50.7116 130.316 51.5049 130.479 52.3406L131.46 52.1489C131.296 51.307 131.131 50.5067 130.966 49.7479L129.989 49.9604ZM138.69 45.6761C135.934 47.0799 133.138 48.3166 130.301 49.3863L130.654 50.322C133.526 49.239 136.356 47.9873 139.144 46.5672L138.69 45.6761ZM152.574 36.1394C148.826 39.6064 144.198 42.7873 138.685 45.6788L139.149 46.5644C144.724 43.6405 149.428 40.4113 153.253 36.8736L152.574 36.1394ZM160.943 25.6264C159.115 29.0772 156.33 32.5836 152.57 36.1434L153.258 36.8695C157.073 33.257 159.935 29.6661 161.827 26.0945L160.943 25.6264ZM163.821 15.941C163.808 18.8516 162.863 22.0758 160.945 25.6226L161.825 26.0983C163.794 22.4558 164.807 19.0686 164.821 15.9456L163.821 15.941ZM160.14 7.88514C162.613 9.97885 163.836 12.6507 163.821 15.941L164.821 15.9456C164.838 12.3642 163.489 9.40957 160.786 7.1219L160.14 7.88514ZM148.912 4.55671C154.048 4.5802 157.753 5.71729 160.127 7.87363L160.799 7.1334C158.166 4.74152 154.172 3.58075 148.916 3.55672L148.912 4.55671ZM139.456 5.6342C143.039 4.90125 146.19 4.54426 148.912 4.55671L148.916 3.55672C146.107 3.54388 142.886 3.91197 139.255 4.65448L139.456 5.6342ZM127.701 9.07742C132.046 7.42893 135.961 6.28344 139.447 5.63593L139.264 4.65275C135.705 5.31386 131.732 6.47876 127.346 8.14244L127.701 9.07742ZM118.43 13.0356C121.519 11.4673 124.604 10.1498 127.687 9.08241L127.36 8.13745C124.232 9.22056 121.104 10.5563 117.977 12.144L118.43 13.0356ZM109.132 18.0062C112.23 16.1836 115.326 14.5283 118.42 13.0404L117.987 12.1392C114.866 13.6397 111.746 15.3082 108.625 17.1444L109.132 18.0062ZM105.718 15.8399C106.707 16.506 107.655 17.2129 108.56 17.9608L109.197 17.1898C108.266 16.4208 107.292 15.6944 106.277 15.0104L105.718 15.8399ZM102.97 13.9476C103.88 14.5326 104.791 15.1594 105.701 15.8282L106.293 15.0222C105.366 14.3417 104.439 13.7031 103.511 13.1064L102.97 13.9476ZM89.0488 7.15355C93.5119 8.49819 98.1503 10.7583 102.965 13.944L103.516 13.1101C98.6389 9.88247 93.9123 7.57443 89.3373 6.19606L89.0488 7.15355ZM76.7556 5.10669C80.4682 5.12367 84.5647 5.8026 89.0488 7.15355L89.3373 6.19606C84.7831 4.82402 80.5895 4.12421 76.7601 4.1067L76.7556 5.10669ZM65.6419 7.27251C68.84 5.81416 72.5407 5.08742 76.7556 5.10669L76.7601 4.1067C72.4273 4.08689 68.5791 4.83406 65.227 6.36264L65.6419 7.27251ZM58.2706 13.2337C60.0711 10.7211 62.5243 8.73189 65.6464 7.27042L65.2225 6.36473C61.962 7.89096 59.3683 9.98498 57.4578 12.6512L58.2706 13.2337ZM55.686 21.3546C55.6997 18.3554 56.5611 15.6523 58.2725 13.231L57.4559 12.6538C55.6247 15.2445 54.7006 18.148 54.686 21.35L55.686 21.3546ZM58.3398 30.4132C56.5484 27.3689 55.6723 24.3515 55.686 21.3546L54.686 21.35C54.6713 24.5544 55.6104 27.7466 57.4779 30.9204L58.3398 30.4132ZM59.4615 32.3022L58.3388 30.4115L57.479 30.9221L58.6016 32.8128L59.4615 32.3022ZM59.3509 33.034L59.4777 32.7831L58.5854 32.3318L58.4585 32.5827L59.3509 33.034ZM53.7954 42.8922C55.2207 39.1709 57.0549 35.9154 59.2948 33.121L58.5146 32.4956C56.2033 35.3789 54.3199 38.7269 52.8615 42.5345L53.7954 42.8922ZM51.7649 54.1452C51.7827 50.2647 52.4602 46.5126 53.7976 42.8864L52.8594 42.5404C51.4814 46.2763 50.7832 50.144 50.765 54.1407L51.7649 54.1452ZM54.187 66.1606C52.5515 62.1006 51.7469 58.0965 51.7649 54.1452L50.765 54.1407C50.7462 58.2342 51.5805 62.3664 53.2594 66.5343L54.187 66.1606ZM62.0594 77.2073C58.4317 73.7959 55.8122 70.1119 54.1856 66.1572L53.2608 66.5376C54.9494 70.6431 57.659 74.4419 61.3744 77.9358L62.0594 77.2073ZM61.9524 79.7648C62.0394 79.013 62.1262 78.3034 62.2128 77.6359L61.2211 77.5073C61.1339 78.1798 61.0465 78.894 60.959 79.6498L61.9524 79.7648ZM61.9465 81.7208L61.9557 79.7096L60.9557 79.7051L60.9465 81.7163L61.9465 81.7208ZM65.3313 95.8106C63.058 91.9546 61.9212 87.2656 61.9465 81.7208L60.9465 81.7163C60.9205 87.4008 62.0865 92.2758 64.4699 96.3185L65.3313 95.8106ZM74.7712 104.717C70.8398 102.646 67.6936 99.6784 65.3273 95.8039L64.4739 96.3251C66.9321 100.35 70.2109 103.445 74.3052 105.602L74.7712 104.717ZM130.172 48.4295C131.605 47.8469 132.956 47.2634 134.223 46.679L133.805 45.7709C132.553 46.3482 131.216 46.9256 129.795 47.5031L130.172 48.4295ZM122.597 33.3803C125.732 38.0463 128.033 42.9538 129.503 48.1035L130.464 47.8291C128.965 42.5738 126.618 37.5714 123.427 32.8226L122.597 33.3803ZM111.924 20.8528C115.897 24.4447 119.454 28.6186 122.595 33.3769L123.429 32.826C120.245 28.0019 116.634 23.7628 112.595 20.1111L111.924 20.8528ZM128.074 11.1676C122.58 13.4205 117.212 16.3897 111.972 20.0729L112.547 20.891C117.731 17.2473 123.034 14.3153 128.454 12.0928L128.074 11.1676ZM139.983 7.0498C136.507 7.8806 132.535 9.25611 128.067 11.1706L128.461 12.0898C132.894 10.1901 136.811 8.83619 140.215 8.0224L139.983 7.0498ZM149.284 5.69536C146.63 5.68323 143.525 6.13938 139.974 7.05184L140.223 8.02036C143.721 7.1214 146.737 6.68373 149.279 6.69535L149.284 5.69536ZM158.792 8.643C156.74 6.66177 153.532 5.71479 149.284 5.69536L149.279 6.69535C153.411 6.71425 156.312 7.63885 158.098 9.36247L158.792 8.643ZM161.93 16.0581C161.944 12.9967 160.898 10.5024 158.776 8.62795L158.114 9.37751C159.998 11.0411 160.942 13.2488 160.93 16.0535L161.93 16.0581ZM155.728 30.4115C159.803 25.1131 161.91 20.323 161.93 16.0581L160.93 16.0535C160.912 20.001 158.953 24.5782 154.935 29.8018L155.728 30.4115ZM137.908 44.7945C145.679 40.533 151.628 35.7422 155.728 30.4115L154.935 29.8018C150.942 34.9932 145.115 39.702 137.427 43.9177L137.908 44.7945ZM134.223 46.679C135.495 46.0925 136.725 45.4633 137.914 44.7913L137.422 43.9208C136.258 44.5789 135.052 45.1956 133.805 45.7709L134.223 46.679ZM76.5821 45.5229C80.5231 40.7047 85.0489 36.0951 90.1608 31.6945L89.5084 30.9367C84.356 35.3722 79.7888 40.0231 75.8081 44.8897L76.5821 45.5229ZM62.136 32.5991C65.7567 38.0417 70.3604 42.3898 75.9436 45.6385L76.4465 44.7741C70.9972 41.6034 66.5057 37.3621 62.9686 32.0452L62.136 32.5991ZM61.8854 32.2194L62.135 32.5976L62.9696 32.0467L62.7199 31.6685L61.8854 32.2194ZM77.1704 24.3468C71.4749 24.3208 66.3919 26.7643 61.9348 31.6053L62.6705 32.2826C66.9724 27.6102 71.7996 25.3223 77.1658 25.3468L77.1704 24.3468ZM82.5012 25.2851C80.9279 24.665 79.1482 24.3559 77.1704 24.3468L77.1658 25.3468C79.0428 25.3554 80.6963 25.6486 82.1345 26.2154L82.5012 25.2851ZM83.1669 25.4055C83.0831 25.433 82.8848 25.4406 82.5056 25.2869L82.13 26.2137C82.5873 26.399 83.059 26.4935 83.4788 26.3556L83.1669 25.4055ZM83.2028 25.2515C83.2026 25.3004 83.1924 25.3676 83.0474 25.4633L83.5983 26.2979C83.9576 26.0607 84.2007 25.71 84.2028 25.2561L83.2028 25.2515ZM83.0794 25.1075C83.1256 25.1193 83.1534 25.1322 83.1686 25.1412C83.1828 25.1495 83.1868 25.1548 83.1871 25.1553C83.1873 25.1555 83.1903 25.1589 83.1939 25.1707C83.1978 25.1836 83.203 25.209 83.2028 25.2515L84.2028 25.2561C84.204 25.0039 84.1408 24.7486 83.9708 24.5341C83.8021 24.3213 83.5691 24.2004 83.3264 24.1385L83.0794 25.1075ZM79.861 24.0963C80.8996 24.2609 81.9428 24.5863 82.9913 25.076L83.4145 24.17C82.2888 23.6442 81.1562 23.2891 80.0176 23.1086L79.861 24.0963ZM76.5448 23.7098C77.682 23.715 78.775 23.8418 79.8246 24.0891L80.0539 23.1158C78.9271 22.8503 77.7585 22.7154 76.5494 22.7098L76.5448 23.7098ZM61.6576 30.409C66.2116 25.8964 71.17 23.6852 76.5448 23.7098L76.5494 22.7098C70.8624 22.6838 65.6599 25.0353 60.9537 29.6987L61.6576 30.409ZM58.5798 21.9963C58.5683 24.5293 59.3412 27.2937 60.86 30.2805L61.7514 29.8272C60.2802 26.9341 59.5692 24.3283 59.5798 22.0009L58.5798 21.9963ZM64.1165 11.5585C60.4586 14.1461 58.5998 17.6388 58.5798 21.9963L59.5798 22.0009C59.5982 17.9784 61.2897 14.7831 64.694 12.3749L64.1165 11.5585ZM78.0005 7.75777C72.4759 7.73251 67.8384 8.987 64.121 11.5553L64.6895 12.3781C68.2019 9.95134 72.6264 8.7332 77.9959 8.75776L78.0005 7.75777ZM89.7026 9.71873C85.5635 8.43094 81.6619 7.77451 78.0005 7.75777L77.9959 8.75776C81.5413 8.77397 85.3436 9.40979 89.4055 10.6736L89.7026 9.71873ZM102.506 16.1283C98.2105 13.1515 93.9419 11.0117 89.6999 9.7179L89.4082 10.6744C93.5347 11.933 97.7108 14.0218 101.936 16.9502L102.506 16.1283ZM106.388 18.7841L102.503 16.1266L101.939 16.9519L105.823 19.6095L106.388 18.7841ZM90.1612 31.6941C95.3597 27.2081 100.764 23.1831 106.374 19.6188L105.838 18.7748C100.185 22.366 94.742 26.4202 89.5079 30.9371L90.1612 31.6941ZM104.695 52.876C112.878 52.9134 120.774 51.6417 128.381 49.0603L128.06 48.1133C120.56 50.6585 112.774 51.913 104.699 51.876L104.695 52.876ZM93.6824 51.9392C97.31 52.5468 100.981 52.859 104.695 52.876L104.699 51.876C101.039 51.8593 97.4215 51.5516 93.8476 50.953L93.6824 51.9392ZM83.1668 49.1003C86.5445 50.3846 90.0499 51.3308 93.6824 51.9392L93.8476 50.953C90.2787 50.3552 86.8371 49.426 83.5222 48.1656L83.1668 49.1003ZM95.0002 33.8768C90.4323 38.4032 86.4088 43.2283 82.9308 48.3522L83.7582 48.9138C87.1986 43.8454 91.1802 39.0699 95.7041 34.5872L95.0002 33.8768ZM109.574 21.6974C104.508 25.2934 99.6509 29.3523 95.0035 33.8736L95.7008 34.5904C100.313 30.1034 105.13 26.0778 110.153 22.5129L109.574 21.6974ZM121.403 33.807C118.131 29.2328 114.391 25.2033 110.182 21.72L109.545 22.4903C113.685 25.917 117.366 29.8826 120.59 34.3888L121.403 33.807ZM128.702 48.4496C127.2 43.1869 124.764 38.3025 121.397 33.7985L120.596 34.3972C123.892 38.8067 126.273 43.5816 127.74 48.724L128.702 48.4496ZM62.9817 72.6577C63.3223 71.1575 63.7049 69.6152 64.1296 68.0307L63.1637 67.7718C62.7359 69.3679 62.3501 70.9227 62.0065 72.4363L62.9817 72.6577ZM55.6605 62.5081C57.0098 66.1858 59.1681 69.6443 62.1248 72.884L62.8634 72.2099C59.9832 69.054 57.8987 65.7051 56.5993 62.1637L55.6605 62.5081ZM53.6676 51.6399C53.6512 55.2243 54.3176 58.8479 55.6605 62.5081L56.5993 62.1637C55.2936 58.6049 54.6518 55.0993 54.6676 51.6444L53.6676 51.6399ZM59.3847 34.8865C55.5993 39.5742 53.6972 45.1671 53.6676 51.6399L54.6676 51.6444C54.6962 45.3795 56.5315 40.0114 60.1627 35.5148L59.3847 34.8865ZM59.8904 34.2603L59.3847 34.8865L60.1627 35.5148L60.6684 34.8886L59.8904 34.2603ZM66.9921 41.3973C64.6836 39.3171 62.5817 36.9467 60.6867 34.2845L59.872 34.8644C61.8073 37.5831 63.9574 40.0088 66.3226 42.1401L66.9921 41.3973ZM74.7971 46.9004C71.984 45.3114 69.3803 43.4751 66.9855 41.3915L66.3291 42.1459C68.7756 44.2745 71.4345 46.1496 74.3053 47.7711L74.7971 46.9004ZM65.7671 63.1929C67.8663 57.9728 70.9234 52.7896 74.9452 47.6436L74.1572 47.0279C70.0866 52.2364 66.9784 57.5003 64.8393 62.8198L65.7671 63.1929ZM64.1228 68.054C64.6312 66.4693 65.1817 64.8425 65.7744 63.1737L64.832 62.839C64.2362 64.5169 63.6823 66.1534 63.1706 67.7485L64.1228 68.054ZM95.4873 87.1509C101.585 87.1788 107.273 86.0611 112.547 83.7934L112.151 82.8747C107.013 85.0847 101.461 86.1782 95.4919 86.151L95.4873 87.1509ZM84.1876 85.7022C87.9912 86.6504 91.758 87.1339 95.4873 87.1509L95.4919 86.151C91.8467 86.1343 88.1595 85.6618 84.4295 84.7319L84.1876 85.7022ZM73.0286 81.3325C76.6582 83.2953 80.378 84.7525 84.1876 85.7022L84.4295 84.7319C80.7055 83.8035 77.0639 82.3778 73.5043 80.4529L73.0286 81.3325ZM72.0375 80.8315L73.0408 81.3389L73.4921 80.4465L72.4888 79.9391L72.0375 80.8315ZM70.9591 80.0251L71.9613 80.7839L72.5649 79.9867L71.5628 79.2278L70.9591 80.0251ZM71.8085 73.4785C71.2909 75.5927 70.942 77.6269 70.763 79.5809L71.7589 79.6721C71.9328 77.7727 72.2727 75.7876 72.7798 73.7163L71.8085 73.4785ZM73.6043 66.8038C72.9214 69.1531 72.3228 71.3781 71.8085 73.4785L72.7798 73.7163C73.2903 71.6314 73.8852 69.4203 74.5646 67.0829L73.6043 66.8038ZM81.532 50.4923C78.2186 55.6229 75.5783 61.0527 73.6115 66.781L74.5573 67.1057C76.4975 61.4547 79.1022 56.098 82.372 51.0348L81.532 50.4923ZM92.7053 52.9587C89.0482 52.3598 85.5185 51.4705 82.1158 50.2912L81.7883 51.236C85.2465 52.4345 88.8318 53.3376 92.5437 53.9456L92.7053 52.9587ZM103.81 53.8832C100.065 53.8661 96.3636 53.5579 92.7053 52.9587L92.5437 53.9456C96.2545 54.5533 100.009 54.8658 103.806 54.8832L103.81 53.8832ZM128.556 50.0005C120.721 52.6279 112.473 53.9228 103.81 53.8832L103.806 54.8832C112.573 54.9233 120.93 53.6125 128.874 50.9487L128.556 50.0005ZM129.697 53.0253L129.207 50.3833L128.223 50.5659L128.714 53.2079L129.697 53.0253ZM130.068 55.9665C129.987 55.0307 129.864 54.0541 129.699 53.0367L128.712 53.1966C128.873 54.1919 128.993 55.1438 129.071 56.0524L130.068 55.9665ZM130.183 58.7777C130.187 57.8408 130.149 56.9037 130.068 55.9665L129.071 56.0524C129.15 56.9596 129.187 57.8665 129.183 58.7732L130.183 58.7777ZM125.234 74.0164C128.511 69.7456 130.156 64.6578 130.183 58.7777L129.183 58.7732C129.157 64.4575 127.571 69.3275 124.441 73.4076L125.234 74.0164ZM112.547 83.7934C117.826 81.523 122.061 78.2634 125.238 74.0113L124.437 73.4127C121.374 77.5123 117.284 80.6674 112.151 82.8747L112.547 83.7934Z" fill="#121212"/>
</g>
<defs>
<filter id="filter0_f_445_9" x="0.976562" y="21.3083" width="54.1299" height="84.8899" filterUnits="userSpaceOnUse" color-interpolation-filters="sRGB">
<feFlood flood-opacity="0" result="BackgroundImageFix"/>
<feBlend mode="normal" in="SourceGraphic" in2="BackgroundImageFix" result="shape"/>
<feGaussianBlur stdDeviation="1.5" result="effect1_foregroundBlur_445_9"/>
</filter>
<filter id="filter1_f_445_9" x="121.311" y="59.6008" width="35.1523" height="48.1262" filterUnits="userSpaceOnUse" color-interpolation-filters="sRGB">
<feFlood flood-opacity="0" result="BackgroundImageFix"/>
<feBlend mode="normal" in="SourceGraphic" in2="BackgroundImageFix" result="shape"/>
<feGaussianBlur stdDeviation="1.5" result="effect1_foregroundBlur_445_9"/>
</filter>
<filter id="filter2_f_445_9" x="151.405" y="39.1558" width="57.0312" height="70.1504" filterUnits="userSpaceOnUse" color-interpolation-filters="sRGB">
<feFlood flood-opacity="0" result="BackgroundImageFix"/>
<feBlend mode="normal" in="SourceGraphic" in2="BackgroundImageFix" result="shape"/>
<feGaussianBlur stdDeviation="1.5" result="effect1_foregroundBlur_445_9"/>
</filter>
<filter id="filter3_f_445_9" x="200.621" y="19.1079" width="44.4873" height="89.6089" filterUnits="userSpaceOnUse" color-interpolation-filters="sRGB">
<feFlood flood-opacity="0" result="BackgroundImageFix"/>
<feBlend mode="normal" in="SourceGraphic" in2="BackgroundImageFix" result="shape"/>
<feGaussianBlur stdDeviation="1.5" result="effect1_foregroundBlur_445_9"/>
</filter>
<filter id="filter4_f_445_9" x="47.7646" y="0.556396" width="120.057" height="111.309" filterUnits="userSpaceOnUse" color-interpolation-filters="sRGB">
<feFlood flood-opacity="0" result="BackgroundImageFix"/>
<feBlend mode="normal" in="SourceGraphic" in2="BackgroundImageFix" result="shape"/>
<feGaussianBlur stdDeviation="1.5" result="effect1_foregroundBlur_445_9"/>
</filter>
</defs>
</svg>
